<svg width="85" height="112" viewBox="0 0 85 112" fill="none" xmlns="http://www.w3.org/2000/svg">
<path d="M20.996 11.9028L22.4007 18.3226L19.4128 27.2584L14.5989 17.6576L15.2668 12.0878L20.996 11.9028Z" fill="#FDB4B4"/>
<path d="M22.6617 17.9901H14.3499V28.0481H22.6617V17.9901Z" fill="#3F3D56"/>
<path d="M19.2437 15.1365C22.3787 15.1365 24.9201 12.5913 24.9201 9.4516C24.9201 6.31189 22.3787 3.76665 19.2437 3.76665C16.1088 3.76665 13.5673 6.31189 13.5673 9.4516C13.5673 12.5913 16.1088 15.1365 19.2437 15.1365Z" fill="#FDB4B4"/>
<path d="M14.3027 13.6789C14.3027 13.6789 10.0715 5.85285 13.8864 2.08673C17.7013 -1.67939 20.7638 0.802244 20.7638 0.802244L22.5125 0.731463C22.5125 0.731463 22.8773 2.10979 23.4654 1.36364C24.0535 0.617497 25.1162 3.33486 25.1162 3.33486C27.0887 6.89253 20.2509 7.68952 20.2509 7.68952C20.2509 7.68952 20.7446 9.26474 20.2428 9.59463C19.7409 9.92452 18.4 11.1655 18.4 11.1655L17.1998 12.0733L16.4865 10.985C16.4865 10.985 15.7415 10.396 15.3651 10.6434C14.9887 10.8908 15.5064 14.1462 15.5064 14.1462L14.3027 13.6789L14.3027 13.6789H14.3027H14.3027Z" fill="#2E2E41"/>
<path d="M7.49303 71.2542L5.32279 103.676L10.658 103.857L17.7112 71.5259L7.49303 71.2542Z" fill="#2E2E41"/>
<path d="M20.424 71.0731L18.2538 103.495L23.589 103.676L30.6422 71.3448L20.424 71.0731Z" fill="#2E2E41"/>
<path d="M6.18618 78.6616L9.02635 43.3501L4.67083 24.9626C4.29533 22.2292 6.01494 19.643 8.66896 18.9377L12.9309 17.8053L14.8173 15.916L19.1079 25.4055L21.7877 15.9233L23.8776 17.4455L30.0759 20.1842L30.0731 20.2483L29.0789 42.4603L31.2982 78.3472L31.1998 78.3485L6.18618 78.6616V78.6616V78.6616Z" fill="#E8E9EA"/>
<path d="M23.2464 103.307L24.7912 107.926C24.7912 107.926 30.8349 108.749 30.9289 110.623C31.023 112.497 22.7152 111.412 17.8506 111.657C12.9859 111.902 17.0354 106.626 17.0354 106.626L17.5538 103.594L23.2464 103.307V103.307Z" fill="#2E2E41"/>
<path d="M10.6306 102.975L12.1754 107.593C12.1754 107.593 18.2191 108.416 18.3131 110.29C18.4072 112.164 10.0994 111.079 5.23479 111.324C0.370137 111.569 4.41958 106.293 4.41958 106.293L4.93797 103.261L10.6306 102.975H10.6306Z" fill="#2E2E41"/>
<path d="M3.09366 59.908C3.02815 58.9974 3.18141 58.0843 3.5406 57.2451L2.38765 47.7729L6.90406 47.3553L7.58718 57.0087C8.04106 57.8002 8.29908 58.689 8.33967 59.6008C8.4725 61.8816 7.40579 63.7984 5.95698 63.8831C4.50817 63.9677 3.22613 62.1881 3.09365 59.9081H3.09366L3.09366 59.908L3.09366 59.908V59.908Z" fill="#FDB4B4"/>
<path d="M31.6994 61.2984C31.6438 60.3871 31.807 59.4757 32.1753 58.6405L31.1255 49.1563L35.6462 48.788L36.2242 58.4483C36.6695 59.2447 36.9178 60.1363 36.9485 61.0485C37.0565 63.3306 35.9689 65.2356 34.5193 65.3045C33.0697 65.3733 31.8071 63.5797 31.6994 61.2984H31.6994L31.6994 61.2984V61.2984Z" fill="#FDB4B4"/>
<path d="M2.36908 56.1093L2.3538 56.0276L0 43.3793L2.78126 22.7828C3.02943 20.944 4.66891 19.6194 6.51769 19.7675C7.48319 19.8449 8.34945 20.3035 8.95711 21.059C9.56467 21.8145 9.82757 22.7599 9.69731 23.7212L7.60403 39.1683L8.92198 55.6904L2.36908 56.1093V56.1093Z" fill="#E8E9EA"/>
<path d="M30.3045 55.8125L25.5721 24.1758C25.3262 23.2481 25.4701 22.2773 25.9796 21.4524C26.4892 20.6274 27.2921 20.0649 28.2407 19.8684C30.0554 19.4925 31.8474 20.6035 32.3211 22.3973L36.8674 55.4152L30.3045 55.8125V55.8125Z" fill="#E8E9EA"/>
<path d="M19.2468 28.2974C19.5677 28.2974 19.8278 28.0369 19.8278 27.7156C19.8278 27.3942 19.5677 27.1337 19.2468 27.1337C18.9259 27.1337 18.6658 27.3942 18.6658 27.7156C18.6658 28.0369 18.9259 28.2974 19.2468 28.2974Z" fill="#D6D7D8"/>
<path d="M19.2468 32.703C19.5677 32.703 19.8278 32.4425 19.8278 32.1211C19.8278 31.7998 19.5677 31.5393 19.2468 31.5393C18.9259 31.5393 18.6658 31.7998 18.6658 32.1211C18.6658 32.4425 18.9259 32.703 19.2468 32.703Z" fill="#D6D7D8"/>
<path d="M19.2468 37.1085C19.5677 37.1085 19.8278 36.848 19.8278 36.5267C19.8278 36.2053 19.5677 35.9448 19.2468 35.9448C18.9259 35.9448 18.6658 36.2053 18.6658 36.5267C18.6658 36.848 18.9259 37.1085 19.2468 37.1085Z" fill="#D6D7D8"/>
<path d="M19.2468 41.5141C19.5677 41.5141 19.8278 41.2536 19.8278 40.9322C19.8278 40.6109 19.5677 40.3504 19.2468 40.3504C18.9259 40.3504 18.6658 40.6109 18.6658 40.9322C18.6658 41.2536 18.9259 41.5141 19.2468 41.5141Z" fill="#D6D7D8"/>
<path d="M19.2468 45.9196C19.5677 45.9196 19.8278 45.6591 19.8278 45.3378C19.8278 45.0164 19.5677 44.7559 19.2468 44.7559C18.9259 44.7559 18.6658 45.0164 18.6658 45.3378C18.6658 45.6591 18.9259 45.9196 19.2468 45.9196Z" fill="#D6D7D8"/>
<path d="M19.2468 50.3252C19.5677 50.3252 19.8278 50.0647 19.8278 49.7433C19.8278 49.422 19.5677 49.1615 19.2468 49.1615C18.9259 49.1615 18.6658 49.422 18.6658 49.7433C18.6658 50.0647 18.9259 50.3252 19.2468 50.3252Z" fill="#D6D7D8"/>
<path d="M19.2468 54.7308C19.5677 54.7308 19.8278 54.4703 19.8278 54.1489C19.8278 53.8275 19.5677 53.567 19.2468 53.567C18.9259 53.567 18.6658 53.8275 18.6658 54.1489C18.6658 54.4703 18.9259 54.7308 19.2468 54.7308Z" fill="#D6D7D8"/>
<path d="M19.2468 59.1363C19.5677 59.1363 19.8278 58.8758 19.8278 58.5544C19.8278 58.2331 19.5677 57.9726 19.2468 57.9726C18.9259 57.9726 18.6658 58.2331 18.6658 58.5544C18.6658 58.8758 18.9259 59.1363 19.2468 59.1363Z" fill="#D6D7D8"/>
<path d="M63.3236 13.3143L70.3127 9.47968V20.4356H62.2296L63.3236 13.3143Z" fill="#2E2E41"/>
<path d="M71.8111 15.7569L72.4561 21.1356L67.8074 30.4069L64.922 21.7777L66.2785 15.5782L71.8111 15.7569Z" fill="#FDB4B4"/>
<path d="M72.6966 21.4567H64.67V31.1695H72.6966V21.4567Z" fill="#3F3D56"/>
<path d="M79.3182 72.8931L81.4139 104.202L76.2618 104.377L69.4506 73.1555L79.3182 72.8931Z" fill="#2E2E41"/>
<path d="M66.8309 72.7182L68.9266 104.027L63.7745 104.202L56.9633 72.9806L66.8309 72.7182Z" fill="#2E2E41"/>
<path d="M84.7614 79.5336L84.6386 79.5332L51.8173 79.4258L51.8468 79.3095L60.285 45.8265L58.1713 28.9289C57.7708 25.727 59.4823 22.7005 62.4301 21.398L63.4943 20.9279L65.516 19.4554L68.1024 28.6082L72.2441 19.4483L74.0687 21.2753L78.1833 22.3687C80.7481 23.0501 82.4096 25.5491 82.0483 28.1817L82.0439 28.2L75.7602 46.157L84.7614 79.5336V79.5336Z" fill="#E8E9EA"/>
<path d="M64.1053 103.846L69.6026 104.123L70.1032 107.051C70.1032 107.051 74.0137 112.146 69.316 111.909C64.6183 111.673 56.5956 112.72 56.6864 110.911C56.7772 109.101 62.6135 108.306 62.6135 108.306L64.1053 103.846L64.1053 103.846Z" fill="#2E2E41"/>
<path d="M76.2883 103.525L81.7855 103.802L82.2861 106.73C82.2861 106.73 86.1966 111.825 81.4989 111.588C76.8012 111.352 68.7785 112.399 68.8693 110.59C68.9602 108.78 74.7965 107.985 74.7965 107.985L76.2883 103.525V103.525Z" fill="#2E2E41"/>
<path d="M81.3223 61.6151H81.3223C81.1944 63.8169 79.9564 65.5355 78.5573 65.4538C77.1582 65.372 76.1281 63.521 76.2563 61.3185C76.2955 60.4379 76.5447 59.5796 76.983 58.8153L77.6427 49.4931L82.0041 49.8964L80.8907 59.0436C81.2376 59.854 81.3856 60.7357 81.3223 61.6151V61.6151Z" fill="#FDB4B4"/>
<path d="M58.9094 60.7779H58.9094C58.7347 62.9765 57.4604 64.6683 56.0634 64.5567C54.6663 64.4451 53.6758 62.5726 53.8509 60.3733C53.9088 59.4938 54.1761 58.641 54.6306 57.8862L55.4883 48.5802L59.8401 49.0764L58.5326 58.1978C58.8621 59.0153 58.9914 59.9001 58.9094 60.7779L58.9094 60.7779H58.9094Z" fill="#FDB4B4"/>
<path d="M82.0247 57.9502L75.6905 57.5453L75.6982 57.4502L76.9634 41.5871L74.9422 26.6705C74.8162 25.7413 75.0703 24.8274 75.6576 24.0972C76.2448 23.3669 77.0822 22.9236 78.0156 22.8487C79.8026 22.7076 81.3871 23.9861 81.6271 25.7634L84.313 45.6536L84.3102 45.6685L82.0247 57.9502Z" fill="#E8E9EA"/>
<path d="M59.964 57.3425L53.6197 56.9584L53.6336 56.8581L58.0084 25.0808C58.4686 23.3355 60.2014 22.262 61.9548 22.6252C62.8717 22.8151 63.6478 23.3588 64.1403 24.1563C64.6328 24.9538 64.772 25.892 64.5322 26.7985L59.964 57.3425V57.3425Z" fill="#E8E9EA"/>
<path d="M67.9677 31.4103C68.2776 31.4103 68.5288 31.1587 68.5288 30.8484C68.5288 30.5381 68.2776 30.2865 67.9677 30.2865C67.6579 30.2865 67.4067 30.5381 67.4067 30.8484C67.4067 31.1587 67.6579 31.4103 67.9677 31.4103Z" fill="#D6D7D8"/>
<path d="M67.9677 35.6647C68.2776 35.6647 68.5288 35.4131 68.5288 35.1028C68.5288 34.7925 68.2776 34.5409 67.9677 34.5409C67.6579 34.5409 67.4067 34.7925 67.4067 35.1028C67.4067 35.4131 67.6579 35.6647 67.9677 35.6647Z" fill="#D6D7D8"/>
<path d="M67.9677 39.9191C68.2776 39.9191 68.5288 39.6675 68.5288 39.3572C68.5288 39.0468 68.2776 38.7953 67.9677 38.7953C67.6579 38.7953 67.4067 39.0468 67.4067 39.3572C67.4067 39.6675 67.6579 39.9191 67.9677 39.9191Z" fill="#D6D7D8"/>
<path d="M67.9677 44.1734C68.2776 44.1734 68.5288 43.9219 68.5288 43.6116C68.5288 43.3012 68.2776 43.0497 67.9677 43.0497C67.6579 43.0497 67.4067 43.3012 67.4067 43.6116C67.4067 43.9219 67.6579 44.1734 67.9677 44.1734Z" fill="#D6D7D8"/>
<path d="M67.9677 48.4278C68.2776 48.4278 68.5288 48.1763 68.5288 47.8659C68.5288 47.5556 68.2776 47.304 67.9677 47.304C67.6579 47.304 67.4067 47.5556 67.4067 47.8659C67.4067 48.1763 67.6579 48.4278 67.9677 48.4278Z" fill="#D6D7D8"/>
<path d="M67.9677 52.6822C68.2776 52.6822 68.5288 52.4306 68.5288 52.1203C68.5288 51.81 68.2776 51.5584 67.9677 51.5584C67.6579 51.5584 67.4067 51.81 67.4067 52.1203C67.4067 52.4306 67.6579 52.6822 67.9677 52.6822Z" fill="#D6D7D8"/>
<path d="M67.9677 56.9366C68.2776 56.9366 68.5288 56.685 68.5288 56.3747C68.5288 56.0644 68.2776 55.8128 67.9677 55.8128C67.6579 55.8128 67.4067 56.0644 67.4067 56.3747C67.4067 56.685 67.6579 56.9366 67.9677 56.9366Z" fill="#D6D7D8"/>
<path d="M67.9677 61.191C68.2776 61.191 68.5288 60.9394 68.5288 60.6291C68.5288 60.3187 68.2776 60.0672 67.9677 60.0672C67.6579 60.0672 67.4067 60.3187 67.4067 60.6291C67.4067 60.9394 67.6579 61.191 67.9677 61.191Z" fill="#D6D7D8"/>
<path d="M68.8194 18.5019C71.7177 18.5019 74.0673 16.1489 74.0673 13.2462C74.0673 10.3436 71.7177 7.99049 68.8194 7.99049C65.9211 7.99049 63.5716 10.3436 63.5716 13.2462C63.5716 16.1489 65.9211 18.5019 68.8194 18.5019Z" fill="#FDB4B4"/>
<path d="M71.5696 7.1108C71.8211 7.62301 71.4223 8.26282 70.8945 8.47817C70.3667 8.69351 69.7704 8.60626 69.2076 8.51662C68.6447 8.42698 68.0477 8.34198 67.5214 8.56114C66.8405 8.84471 66.4567 9.55604 66.126 10.2161C65.5086 11.4484 64.8911 12.6807 64.2737 13.913C63.972 14.515 63.6635 15.1442 63.6577 15.8178C63.6471 17.0542 64.6264 18.0423 65.1534 19.1605C65.7949 20.522 65.742 22.1905 65.0155 23.5084C64.289 24.8264 62.9074 25.7602 61.4151 25.9418C61.0225 25.9896 60.607 25.9844 60.254 25.8058C59.901 25.6272 59.6315 25.237 59.6969 24.8464C59.8248 24.0823 60.9906 23.9038 61.2047 23.1593C61.3164 22.7707 61.1185 22.3557 60.8516 22.0521C60.5848 21.7486 60.2473 21.5118 59.9928 21.1978C59.4059 20.4738 59.3668 19.3562 59.9017 18.5928C60.216 18.1442 60.7022 17.8109 60.9053 17.302C61.0785 16.8683 61.0156 16.3807 60.95 15.9182C60.8658 15.3239 60.7815 14.7296 60.6972 14.1353C60.5989 13.4419 60.5021 12.7237 60.6964 12.0509C61.1417 10.5092 62.8798 9.78516 63.8992 8.54681C64.3728 7.97136 64.6915 7.27929 65.1774 6.71419C65.9929 5.76588 67.2768 5.24275 68.5217 5.3515C69.7666 5.46025 70.9406 6.19808 71.5798 7.27347" fill="#2E2E41"/>
<path d="M70.7411 7.20802C70.4847 7.29984 70.3896 7.63428 70.4634 7.89677C70.5372 8.15926 70.7304 8.36783 70.9073 8.57515C72.9079 10.9199 73.3729 14.4667 72.0446 17.2492C71.6912 17.9894 71.2206 18.6859 71.03 19.4838C70.8913 20.0643 70.8988 20.7011 70.5772 21.2037C70.2498 21.7154 69.601 22.0583 69.5369 22.6626C69.4957 23.0504 69.7317 23.4271 70.0481 23.6544C70.3645 23.8818 70.751 23.9858 71.1311 24.0707C72.119 24.2911 73.1291 24.4115 74.1411 24.4293C74.471 24.4351 74.8115 24.428 75.1141 24.2963C75.4168 24.1647 75.6751 23.8791 75.6786 23.5487C75.6813 23.289 75.5317 23.0494 75.5126 22.7903C75.4555 22.0142 76.4983 21.6013 76.7015 20.8501C76.835 20.3562 76.5719 19.848 76.2915 19.4203C76.0111 18.9925 75.6912 18.5434 75.6981 18.0318C75.7047 17.542 76.0116 17.1106 76.1309 16.6356C76.2959 15.9785 76.0932 15.2912 75.8922 14.6443C75.7213 14.0943 75.5504 13.5443 75.3795 12.9943C75.1978 12.4096 75.0161 11.825 74.8344 11.2403C74.5172 10.2196 74.1842 9.16929 73.4978 8.35063C72.8114 7.53196 71.6741 6.99539 70.6602 7.32963" fill="#2E2E41"/>
<path d="M74.3171 27.574L73.9574 27.469C74.7068 24.8958 73.091 20.0937 73.0747 20.0455L73.4293 19.9244C73.4979 20.1258 75.0994 24.8881 74.3171 27.574Z" fill="#3F3C57"/>
<path d="M74.1373 30.5297C75.0016 30.5297 75.7023 29.828 75.7023 28.9623C75.7023 28.0967 75.0016 27.3949 74.1373 27.3949C73.2729 27.3949 72.5722 28.0967 72.5722 28.9623C72.5722 29.828 73.2729 30.5297 74.1373 30.5297Z" fill="#3F3C57"/>
<path d="M63.854 34.5114H62.9048C62.8013 34.5114 62.7175 34.4274 62.7175 34.3238C62.7175 34.2202 62.8013 34.1362 62.9048 34.1362H63.854C64.1156 34.1362 64.3613 34.0341 64.5461 33.8487C64.7307 33.6634 64.8322 33.417 64.8316 33.1552L64.8201 27.3002C64.8201 26.0283 63.7872 24.9938 62.5175 24.9938C61.2479 24.9938 60.2148 26.0283 60.2148 27.2998L60.2263 32.7801C60.2274 33.3148 60.6626 33.753 61.1965 33.7572L61.848 33.7621C61.9513 33.7629 62.0346 33.8475 62.0338 33.9512C62.0331 34.0543 61.9493 34.1374 61.8465 34.1374H61.845L61.1935 34.1324C60.4552 34.1267 59.8531 33.5204 59.8516 32.7809L59.8401 27.3002C59.8401 25.8214 61.0412 24.6186 62.5175 24.6186C63.9937 24.6186 65.1948 25.8214 65.1948 27.2998L65.2063 33.1545C65.2071 33.5167 65.0667 33.8574 64.8112 34.1137C64.5558 34.3701 64.2157 34.5114 63.854 34.5114Z" fill="#3F3C57"/>
<path d="M61.8465 34.6147C62.2133 34.6147 62.5105 34.317 62.5105 33.9497C62.5105 33.5825 62.2133 33.2848 61.8465 33.2848C61.4798 33.2848 61.1826 33.5825 61.1826 33.9497C61.1826 34.317 61.4798 34.6147 61.8465 34.6147Z" fill="#3F3C57"/>
<path d="M62.9048 34.9888C63.2715 34.9888 63.5688 34.6911 63.5688 34.3238C63.5688 33.9565 63.2715 33.6588 62.9048 33.6588C62.5381 33.6588 62.2408 33.9565 62.2408 34.3238C62.2408 34.6911 62.5381 34.9888 62.9048 34.9888Z" fill="#3F3C57"/>
<path d="M24.5732 24.7617L24.2136 24.6567C24.9629 22.0834 23.3653 17.207 23.349 17.1588L23.7986 17.4982C23.8672 17.6997 25.3555 22.0757 24.5732 24.7617Z" fill="#3F3C57"/>
<path d="M11.9298 25.2189L12.2894 25.1139C11.5401 22.5406 13.1559 17.7385 13.1722 17.6903L12.7874 17.9485C12.7188 18.1499 11.1475 22.5329 11.9298 25.2189H11.9298Z" fill="#3F3C57"/>
<path d="M24.3934 27.7174C25.2577 27.7174 25.9584 27.0156 25.9584 26.15C25.9584 25.2843 25.2577 24.5826 24.3934 24.5826C23.529 24.5826 22.8284 25.2843 22.8284 26.15C22.8284 27.0156 23.529 27.7174 24.3934 27.7174Z" fill="#3F3C57"/>
<path d="M13.5982 34.8577H12.6491C12.5456 34.8577 12.4618 34.7737 12.4618 34.6701C12.4618 34.5665 12.5456 34.4825 12.6491 34.4825H13.5982C13.8599 34.4825 14.1056 34.3804 14.2903 34.195C14.4749 34.0097 14.5765 33.7634 14.5759 33.5015L14.5644 27.6466C14.5644 26.3746 13.5315 25.3401 12.2618 25.3401C10.9922 25.3401 9.95906 26.3746 9.95906 27.6462L9.97058 33.1265C9.97168 33.6611 10.4069 34.0994 10.9408 34.1035L11.5922 34.1085C11.6956 34.1093 11.7788 34.1938 11.7781 34.2975C11.7774 34.4006 11.6936 34.4837 11.5908 34.4837H11.5893L10.9378 34.4788C10.1994 34.4731 9.59737 33.8667 9.59591 33.1272L9.58438 27.6466C9.58438 26.1678 10.7854 24.9649 12.2618 24.9649C13.738 24.9649 14.9391 26.1678 14.9391 27.6462L14.9506 33.5008C14.9513 33.863 14.811 34.2037 14.5554 34.4601C14.3 34.7165 13.9599 34.8577 13.5982 34.8577Z" fill="#3F3C57"/>
<path d="M11.5908 34.9611C11.9576 34.9611 12.2548 34.6634 12.2548 34.2961C12.2548 33.9288 11.9576 33.6311 11.5908 33.6311C11.2241 33.6311 10.9268 33.9288 10.9268 34.2961C10.9268 34.6634 11.2241 34.9611 11.5908 34.9611Z" fill="#3F3C57"/>
<path d="M12.6491 35.3351C13.0158 35.3351 13.3131 35.0374 13.3131 34.6702C13.3131 34.3029 13.0158 34.0052 12.6491 34.0052C12.2823 34.0052 11.9851 34.3029 11.9851 34.6702C11.9851 35.0374 12.2823 35.3351 12.6491 35.3351Z" fill="#3F3C57"/>
</svg>
