<svg width="113" height="92" viewBox="0 0 113 92" fill="none" xmlns="http://www.w3.org/2000/svg">
<g clip-path="url(#clip0_32_634)">
<path d="M19.6376 62.4956H19.2782C19.2306 62.4956 19.1849 62.4765 19.1512 62.4425C19.1175 62.4086 19.0986 62.3625 19.0985 62.3145V61.9523C19.0986 61.9042 19.1175 61.8582 19.1512 61.8243C19.1849 61.7903 19.2306 61.7712 19.2782 61.7711H19.6376C19.6853 61.7712 19.731 61.7903 19.7646 61.8243C19.7983 61.8582 19.8173 61.9042 19.8173 61.9523V62.3145C19.8173 62.3625 19.7983 62.4086 19.7646 62.4425C19.731 62.4765 19.6853 62.4956 19.6376 62.4956Z" fill="#CCCCCC"/>
<path d="M19.4647 62.0965C19.4578 62.0965 19.451 62.0959 19.4442 62.0947C19.4287 62.092 19.4139 62.0863 19.4006 62.0778C19.3873 62.0694 19.3758 62.0584 19.3667 62.0454C19.3576 62.0325 19.3512 62.0178 19.3477 62.0024C19.3442 61.9869 19.3438 61.9709 19.3465 61.9553L20.5313 55.007C20.5368 54.9756 20.5545 54.9477 20.5804 54.9294C20.6063 54.9111 20.6383 54.9038 20.6695 54.9092C20.7007 54.9146 20.7285 54.9322 20.7468 54.9582C20.7652 54.9842 20.7726 55.0164 20.7674 55.0479L19.5826 61.9962C19.5778 62.0242 19.5634 62.0497 19.5418 62.068C19.5202 62.0863 19.4929 62.0964 19.4647 62.0965Z" fill="#CCCCCC"/>
<path d="M19.4645 62.0965C19.4362 62.0964 19.4089 62.0863 19.3874 62.068C19.3658 62.0497 19.3513 62.0242 19.3465 61.9962L18.1618 55.0479C18.1566 55.0164 18.164 54.9842 18.1823 54.9582C18.2007 54.9322 18.2285 54.9146 18.2597 54.9092C18.2908 54.9038 18.3229 54.9111 18.3488 54.9294C18.3747 54.9477 18.3923 54.9756 18.3979 55.007L19.5827 61.9553C19.5854 61.9709 19.5849 61.9869 19.5815 62.0024C19.578 62.0178 19.5715 62.0324 19.5625 62.0454C19.5534 62.0583 19.5419 62.0694 19.5286 62.0778C19.5152 62.0863 19.5004 62.092 19.4849 62.0947C19.4782 62.0959 19.4713 62.0965 19.4645 62.0965Z" fill="#CCCCCC"/>
<path d="M22.0152 53.8176C22.1307 52.993 21.6938 52.2491 21.0392 52.156C20.3846 52.0628 19.7604 52.6558 19.6449 53.4804C19.5475 54.1758 19.8439 54.8122 20.3315 55.0509L20.3038 55.2491L20.8963 55.3335L20.9241 55.1352C21.4582 55.0419 21.9178 54.513 22.0152 53.8176Z" fill="#FF6584"/>
<path d="M19.2637 53.4424C19.1219 52.622 18.4791 52.0496 17.8278 52.1639C17.1766 52.2782 16.7637 53.036 16.9054 53.8563C17.025 54.5483 17.5012 55.062 18.0381 55.1379L18.0722 55.3351L18.6618 55.2316L18.6277 55.0344C19.1074 54.78 19.3833 54.1343 19.2637 53.4424Z" fill="#CCCCCC"/>
<path d="M19.4579 61.9522C19.4262 61.9522 19.3957 61.9395 19.3732 61.9169C19.3508 61.8942 19.3381 61.8635 19.3381 61.8315V54.6886C19.338 54.6727 19.341 54.6569 19.347 54.6421C19.3529 54.6273 19.3617 54.6139 19.3729 54.6026C19.384 54.5913 19.3972 54.5823 19.4118 54.5761C19.4265 54.57 19.4421 54.5668 19.4579 54.5668C19.4738 54.5668 19.4894 54.57 19.504 54.5761C19.5186 54.5823 19.5319 54.5913 19.543 54.6026C19.5542 54.6139 19.563 54.6273 19.5689 54.6421C19.5749 54.6569 19.5779 54.6727 19.5777 54.6886V61.8315C19.5777 61.8635 19.5651 61.8942 19.5426 61.9169C19.5202 61.9395 19.4897 61.9522 19.4579 61.9522Z" fill="#CCCCCC"/>
<path d="M20.5807 53.3166C20.5807 52.4839 20.0448 51.8088 19.3838 51.8088C18.7227 51.8088 18.1869 52.4839 18.1869 53.3166C18.1869 54.019 18.5686 54.6074 19.0846 54.775V54.9752H19.683V54.775C20.199 54.6074 20.5807 54.019 20.5807 53.3166Z" fill="#6C63FF"/>
<path d="M75.247 92L75.223 91.9977L37.753 88.4897L3.68027 91.6797C3.21362 91.7234 2.74306 91.6684 2.29867 91.5184C1.85428 91.3684 1.44583 91.1265 1.09945 90.8084C0.753069 90.4902 0.476371 90.1027 0.28704 89.6706C0.0977093 89.2386 -8.64106e-05 88.7714 -9.39576e-05 88.2991V6.62895C-0.00353345 5.78188 0.308746 4.96438 0.874916 4.33832C1.44109 3.71226 2.21987 3.32327 3.05707 3.24839L37.753 0L37.777 0.00229416L75.247 3.51032L109.32 0.320336C109.786 0.276647 110.257 0.33157 110.701 0.481595C111.146 0.631619 111.554 0.873443 111.9 1.19161C112.247 1.50978 112.523 1.89728 112.713 2.32936C112.902 2.76143 113 3.22857 113 3.7009V85.371C113.003 86.2181 112.691 87.0356 112.125 87.6616C111.559 88.2877 110.78 88.6767 109.943 88.7516L75.247 92ZM37.753 87.965L37.777 87.9673L75.2469 91.4754L109.895 88.2316C110.603 88.1682 111.262 87.839 111.741 87.3093C112.22 86.7795 112.485 86.0877 112.482 85.371V3.7009C112.482 3.30123 112.399 2.90596 112.239 2.54035C112.078 2.17475 111.844 1.84685 111.551 1.57763C111.258 1.30841 110.913 1.10378 110.537 0.976836C110.161 0.849887 109.762 0.80341 109.367 0.840375L75.247 4.03495L75.223 4.03265L37.753 0.524629L3.10501 3.76843L3.08103 3.50841L3.10501 3.76843C2.39661 3.83182 1.73764 4.16097 1.25858 4.69072C0.779511 5.22047 0.515273 5.9122 0.518175 6.62896V88.2991C0.518179 88.6988 0.600927 89.094 0.761128 89.4596C0.92133 89.8252 1.15546 90.1531 1.44855 90.4224C1.74164 90.6916 2.08725 90.8962 2.46327 91.0232C2.83929 91.1501 3.23746 91.1966 3.63232 91.1596L37.753 87.965Z" fill="#E6E6E6"/>
<path d="M107.963 20.9021C107.963 18.5797 106.094 13.0688 103.788 13.0688C101.482 13.0688 99.6128 18.5797 99.6128 20.9021C99.6135 22.0177 100.054 23.0873 100.837 23.8759C101.62 24.6645 102.681 25.1075 103.788 25.1075C104.895 25.1075 105.956 24.6645 106.739 23.8759C107.522 23.0873 107.963 22.0177 107.963 20.9021Z" fill="#3F3D56"/>
<path d="M103.788 30.2202C103.775 30.2202 103.763 30.2151 103.754 30.2061C103.745 30.1971 103.74 30.1849 103.74 30.1721V20.349C103.74 20.3363 103.745 20.3241 103.754 20.3152C103.763 20.3062 103.775 20.3012 103.788 20.3012C103.801 20.3012 103.813 20.3062 103.822 20.3152C103.831 20.3241 103.836 20.3363 103.836 20.349V30.1721C103.836 30.1784 103.834 30.1847 103.832 30.1905C103.83 30.1963 103.826 30.2016 103.822 30.2061C103.817 30.2106 103.812 30.2141 103.806 30.2165C103.8 30.219 103.794 30.2202 103.788 30.2202Z" fill="#CCCCCC"/>
<path d="M103.788 22.1843C103.781 22.1843 103.774 22.1829 103.768 22.18C103.762 22.1771 103.756 22.173 103.752 22.1677L101.351 19.3768C101.342 19.3672 101.338 19.3546 101.339 19.3419C101.34 19.3292 101.346 19.3174 101.356 19.309C101.365 19.3007 101.378 19.2965 101.39 19.2974C101.403 19.2983 101.415 19.3042 101.423 19.3138L103.824 22.1047C103.83 22.1116 103.834 22.1202 103.835 22.1293C103.837 22.1385 103.835 22.1478 103.831 22.1562C103.828 22.1646 103.822 22.1717 103.814 22.1767C103.806 22.1817 103.797 22.1843 103.788 22.1843V22.1843Z" fill="#CCCCCC"/>
<path d="M103.788 23.795C103.779 23.795 103.769 23.7922 103.761 23.7869C103.754 23.7816 103.747 23.7741 103.744 23.7653C103.74 23.7565 103.739 23.7468 103.741 23.7375C103.743 23.7282 103.748 23.7196 103.754 23.7129L105.119 22.3377C105.123 22.3332 105.128 22.3297 105.134 22.3273C105.14 22.3248 105.146 22.3236 105.152 22.3236C105.159 22.3236 105.165 22.3248 105.171 22.3273C105.176 22.3297 105.182 22.3332 105.186 22.3377C105.191 22.3422 105.194 22.3475 105.197 22.3533C105.199 22.3591 105.2 22.3654 105.2 22.3717C105.2 22.378 105.199 22.3843 105.197 22.3901C105.194 22.396 105.191 22.4013 105.186 22.4057L103.822 23.7809C103.817 23.7854 103.812 23.7889 103.806 23.7913C103.8 23.7938 103.794 23.795 103.788 23.795Z" fill="#CCCCCC"/>
<path d="M99.2659 30.1565C99.2659 29.6905 99.4495 29.2437 99.7764 28.9143C100.103 28.5848 100.547 28.3997 101.009 28.3997C101.471 28.3997 101.915 28.5848 102.241 28.9143C102.568 29.2437 102.752 29.6905 102.752 30.1565" fill="#F2F2F2"/>
<path d="M101.009 30.1564C100.996 30.1564 100.984 30.1514 100.976 30.1425C100.967 30.1336 100.962 30.1216 100.962 30.109V29.1831C100.962 29.1705 100.967 29.1585 100.976 29.1496C100.984 29.1407 100.996 29.1357 101.009 29.1357C101.021 29.1357 101.033 29.1407 101.042 29.1496C101.051 29.1585 101.056 29.1705 101.056 29.1831V30.109C101.056 30.1216 101.051 30.1336 101.042 30.1425C101.033 30.1514 101.021 30.1564 101.009 30.1564Z" fill="#CCCCCC"/>
<path d="M101.009 29.8383C100.998 29.8383 100.987 29.8343 100.978 29.8269L100.413 29.3379C100.408 29.3338 100.404 29.3288 100.402 29.3233C100.399 29.3177 100.397 29.3117 100.397 29.3055C100.396 29.2992 100.397 29.293 100.399 29.2871C100.401 29.2811 100.404 29.2756 100.408 29.2709C100.412 29.2662 100.417 29.2623 100.422 29.2595C100.428 29.2567 100.434 29.255 100.44 29.2545C100.446 29.254 100.452 29.2548 100.458 29.2567C100.464 29.2587 100.47 29.2618 100.474 29.2658L101.04 29.7548C101.047 29.7611 101.052 29.7695 101.055 29.7789C101.057 29.7883 101.056 29.7982 101.053 29.8073C101.05 29.8164 101.044 29.8243 101.036 29.8298C101.028 29.8354 101.018 29.8383 101.009 29.8383H101.009Z" fill="#CCCCCC"/>
<path d="M104.636 30.1565C104.636 29.6905 104.82 29.2437 105.147 28.9143C105.474 28.5848 105.917 28.3997 106.379 28.3997C106.842 28.3997 107.285 28.5848 107.612 28.9143C107.939 29.2437 108.122 29.6905 108.122 30.1565" fill="#F2F2F2"/>
<path d="M106.379 30.1564C106.367 30.1564 106.355 30.1514 106.346 30.1425C106.337 30.1336 106.332 30.1216 106.332 30.109V29.1831C106.332 29.1705 106.337 29.1585 106.346 29.1496C106.355 29.1407 106.367 29.1357 106.379 29.1357C106.392 29.1357 106.404 29.1407 106.413 29.1496C106.422 29.1585 106.426 29.1705 106.426 29.1831V30.109C106.426 30.1216 106.422 30.1336 106.413 30.1425C106.404 30.1514 106.392 30.1564 106.379 30.1564Z" fill="#CCCCCC"/>
<path d="M106.379 29.8383C106.368 29.8383 106.357 29.8343 106.349 29.8269L105.783 29.3379C105.774 29.3296 105.768 29.318 105.767 29.3055C105.766 29.293 105.77 29.2806 105.778 29.2711C105.787 29.2615 105.798 29.2556 105.81 29.2547C105.823 29.2537 105.835 29.2577 105.845 29.2658L106.41 29.7548C106.417 29.7611 106.423 29.7695 106.425 29.7789C106.427 29.7883 106.427 29.7982 106.424 29.8073C106.42 29.8164 106.414 29.8243 106.406 29.8298C106.398 29.8353 106.389 29.8383 106.379 29.8383V29.8383Z" fill="#CCCCCC"/>
<path d="M53.0457 14.2505C54.1908 12.5985 55.5785 7.74213 53.9382 6.58725C52.2979 5.43236 48.2509 8.41628 47.1058 10.0683C46.5559 10.8622 46.3413 11.8436 46.5093 12.7969C46.6773 13.7502 47.2141 14.5971 48.0016 15.1516C48.7891 15.7061 49.7629 15.9226 50.7088 15.7537C51.6547 15.5847 52.4953 15.044 53.0457 14.2505Z" fill="#F2F2F2"/>
<path d="M45.4812 18.7877C45.4722 18.7813 45.4661 18.7716 45.4641 18.7607C45.4622 18.7498 45.4647 18.7386 45.471 18.7295L50.3145 11.742C50.3208 11.7329 50.3304 11.7268 50.3412 11.7248C50.3521 11.7229 50.3632 11.7254 50.3722 11.7317C50.3812 11.738 50.3874 11.7477 50.3893 11.7586C50.3912 11.7695 50.3887 11.7808 50.3824 11.7898L45.5389 18.7773C45.5326 18.7864 45.523 18.7926 45.5122 18.7945C45.5014 18.7965 45.4902 18.794 45.4812 18.7877Z" fill="#CCCCCC"/>
<path d="M49.4436 13.0714C49.4387 13.068 49.4346 13.0636 49.4316 13.0584C49.4285 13.0533 49.4267 13.0475 49.4261 13.0416L49.0941 9.85365C49.093 9.84263 49.0962 9.83161 49.1031 9.823C49.11 9.81439 49.12 9.80891 49.131 9.80775C49.1419 9.8066 49.1529 9.80986 49.1614 9.81683C49.1699 9.82381 49.1754 9.83391 49.1765 9.84493L49.5085 13.0328C49.5093 13.0408 49.5078 13.0488 49.5043 13.056C49.5007 13.0631 49.4952 13.0691 49.4883 13.0732C49.4815 13.0772 49.4736 13.0792 49.4657 13.0789C49.4578 13.0786 49.4501 13.076 49.4436 13.0714L49.4436 13.0714Z" fill="#CCCCCC"/>
<path d="M48.6494 14.2172C48.6427 14.2124 48.6375 14.2058 48.6345 14.1981C48.6316 14.1904 48.6309 14.182 48.6327 14.1739C48.6345 14.1659 48.6385 14.1585 48.6445 14.1528C48.6504 14.1471 48.6578 14.1433 48.6659 14.1418L50.3145 13.847C50.3199 13.846 50.3254 13.8461 50.3307 13.8473C50.3361 13.8484 50.3411 13.8506 50.3456 13.8538C50.3501 13.8569 50.3539 13.8609 50.3569 13.8655C50.3598 13.8702 50.3618 13.8754 50.3628 13.8808C50.3637 13.8862 50.3636 13.8917 50.3624 13.8971C50.3613 13.9025 50.359 13.9076 50.3559 13.9121C50.3527 13.9166 50.3488 13.9204 50.3441 13.9233C50.3395 13.9263 50.3344 13.9283 50.329 13.9292L48.6804 14.224C48.675 14.225 48.6695 14.2249 48.6642 14.2237C48.6589 14.2225 48.6539 14.2203 48.6494 14.2172Z" fill="#CCCCCC"/>
<path d="M42.2959 16.4774C42.526 16.147 42.8768 15.9221 43.2713 15.8521C43.6657 15.782 44.0717 15.8725 44.4 16.1037C44.7284 16.3348 44.9523 16.6879 45.0227 17.0852C45.0932 17.4826 45.0043 17.8919 44.7757 18.2234" fill="#F2F2F2"/>
<path d="M43.5358 17.3504C43.5269 17.3441 43.5208 17.3346 43.5189 17.3238C43.517 17.3131 43.5195 17.302 43.5257 17.293L43.9822 16.6345C43.9884 16.6256 43.9979 16.6195 44.0085 16.6177C44.0192 16.6158 44.0301 16.6183 44.039 16.6245C44.0478 16.6307 44.0539 16.6402 44.0558 16.6509C44.0577 16.6617 44.0553 16.6727 44.0492 16.6817L43.5927 17.3402C43.5865 17.3492 43.577 17.3553 43.5663 17.3572C43.5557 17.3591 43.5447 17.3567 43.5358 17.3504Z" fill="#CCCCCC"/>
<path d="M43.6927 17.1241C43.6846 17.1185 43.6789 17.1101 43.6765 17.1006L43.5155 16.4696C43.5141 16.4644 43.5138 16.4589 43.5145 16.4535C43.5153 16.4482 43.5171 16.443 43.5198 16.4383C43.5225 16.4336 43.5261 16.4295 43.5304 16.4263C43.5347 16.423 43.5396 16.4206 43.5449 16.4193C43.5501 16.4179 43.5555 16.4176 43.5608 16.4184C43.5662 16.4192 43.5713 16.421 43.5759 16.4238C43.5805 16.4265 43.5846 16.4302 43.5878 16.4346C43.591 16.4389 43.5934 16.4438 43.5947 16.4491L43.7557 17.0801C43.7578 17.0882 43.7573 17.0968 43.7544 17.1047C43.7515 17.1126 43.7462 17.1194 43.7394 17.1242C43.7325 17.129 43.7244 17.1315 43.716 17.1315C43.7077 17.1315 43.6995 17.1289 43.6927 17.1241Z" fill="#CCCCCC"/>
<path d="M46.1161 19.1672C46.2296 19.0026 46.3743 18.8621 46.5417 18.754C46.7092 18.6458 46.8962 18.5719 47.092 18.5367C47.2878 18.5014 47.4886 18.5055 47.6829 18.5485C47.8772 18.5916 48.0611 18.6729 48.2242 18.7877C48.3872 18.9025 48.5262 19.0486 48.6332 19.2176C48.7401 19.3866 48.813 19.5753 48.8475 19.7727C48.882 19.9701 48.8776 20.1725 48.8344 20.3682C48.7912 20.5639 48.7102 20.749 48.5959 20.9131" fill="#F2F2F2"/>
<path d="M47.356 20.0401C47.3471 20.0339 47.341 20.0243 47.3391 20.0135C47.3372 20.0028 47.3397 19.9917 47.3459 19.9828L47.8024 19.3242C47.8086 19.3152 47.8181 19.3091 47.8287 19.3072C47.8394 19.3053 47.8504 19.3077 47.8593 19.314C47.8682 19.3203 47.8742 19.3298 47.8761 19.3406C47.878 19.3513 47.8756 19.3624 47.8694 19.3714L47.4129 20.0299C47.4067 20.0389 47.3972 20.045 47.3865 20.0469C47.3758 20.0488 47.3649 20.0464 47.356 20.0401Z" fill="#CCCCCC"/>
<path d="M47.5129 19.8138C47.5049 19.8082 47.4991 19.7999 47.4967 19.7903L47.3357 19.1594C47.3331 19.1488 47.3347 19.1376 47.3402 19.1283C47.3457 19.1189 47.3547 19.1121 47.3652 19.1094C47.3756 19.1067 47.3867 19.1083 47.3961 19.1138C47.4054 19.1193 47.4121 19.1283 47.4149 19.1388L47.5759 19.7698C47.578 19.778 47.5775 19.7866 47.5746 19.7945C47.5717 19.8023 47.5665 19.8091 47.5596 19.8139C47.5527 19.8187 47.5446 19.8213 47.5362 19.8213C47.5279 19.8213 47.5197 19.8187 47.5129 19.8138Z" fill="#CCCCCC"/>
<path d="M76.5403 50.2859C77.4615 51.1386 78.3767 51.9974 79.2859 52.8623C79.0526 52.8753 78.8104 52.8858 78.5616 52.8936C78.2104 52.9054 77.8451 52.9106 77.4615 52.9106C73.2544 52.9106 71.1192 52.2146 69.0565 51.5408C67.0974 50.9022 65.2472 50.2989 61.4483 50.2989C57.648 50.2989 55.7978 50.9022 53.84 51.5408C51.776 52.2146 49.6407 52.9106 45.4337 52.9106C41.2253 52.9106 39.0913 52.2146 37.0273 51.5408C35.1136 50.9166 33.3035 50.3263 29.6782 50.3002C29.5927 50.2989 29.5072 50.2989 29.4191 50.2989V47.6873C29.5059 47.6873 29.5927 47.6873 29.6782 47.6886C33.7156 47.716 35.8042 48.3976 37.8254 49.0558C39.7845 49.6956 41.6348 50.2989 45.4337 50.2989C49.2326 50.2989 51.0828 49.6956 53.0419 49.0558C55.1059 48.3833 57.2399 47.6873 61.4483 47.6873C65.6553 47.6873 67.7893 48.3833 69.8533 49.0558C71.4898 49.5899 73.051 50.0991 75.7357 50.2519C75.9935 50.2676 76.2604 50.278 76.5403 50.2859Z" fill="#6C63FF"/>
<path d="M109.492 50.2989V52.9106C105.284 52.9106 103.15 52.2146 101.086 51.5408C99.1267 50.9022 97.2765 50.2989 93.4775 50.2989C89.6772 50.2989 87.827 50.9022 85.868 51.5408C85.7617 51.576 85.6542 51.61 85.5466 51.6452C85.3627 51.7053 85.1761 51.7654 84.9869 51.8241C84.2717 51.1177 83.5539 50.4173 82.8335 49.7231C83.0343 49.6734 83.2286 49.6212 83.4205 49.5677C83.9918 49.4083 84.5269 49.2334 85.0711 49.0558C87.1352 48.3833 89.2691 47.6873 93.4775 47.6873C97.6858 47.6873 99.8199 48.3833 101.884 49.0558C103.843 49.6956 105.693 50.2989 109.492 50.2989Z" fill="#6C63FF"/>
<path d="M52.2321 30.2139C44.9789 24.89 37.3474 19.8417 29.5513 15.2099L29.16 14.9774V30.6866H52.8761L52.2321 30.2139ZM29.6783 30.1643V15.8928C37.0948 20.3144 44.357 25.112 51.2825 30.1643H29.6783ZM88.94 62.498C85.8032 59.2112 82.5852 55.9993 79.2859 52.8623C78.3764 51.9965 77.4612 51.1377 76.5404 50.2859C70.921 45.0834 65.1168 40.1356 59.1278 35.4425L59.0578 35.3876H29.16V62.9407H89.3624L88.94 62.498ZM29.6783 62.4184V35.9099H58.8803C64.6552 40.4373 70.2737 45.2179 75.7358 50.2519C76.6842 51.1255 77.6262 52.0061 78.5617 52.8936C81.8319 55.991 85.0258 59.166 88.1432 62.4184H29.6783ZM88.94 62.498C85.8032 59.2112 82.5852 55.9993 79.2859 52.8623C78.3764 51.9965 77.4612 51.1377 76.5404 50.2859C70.921 45.0834 65.1168 40.1356 59.1278 35.4425L59.0578 35.3876H29.16V62.9407H89.3624L88.94 62.498ZM29.6783 62.4184V35.9099H58.8803C64.6552 40.4373 70.2737 45.2179 75.7358 50.2519C76.6842 51.1255 77.6262 52.0061 78.5617 52.8936C81.8319 55.991 85.0258 59.166 88.1432 62.4184H29.6783ZM52.2321 30.2139C44.9789 24.89 37.3474 19.8417 29.5513 15.2099L29.16 14.9774V30.6866H52.8761L52.2321 30.2139ZM29.6783 30.1643V15.8928C37.0948 20.3144 44.357 25.112 51.2825 30.1643H29.6783ZM52.2321 30.2139C44.9789 24.89 37.3474 19.8417 29.5513 15.2099L29.16 14.9774V30.6866H52.8761L52.2321 30.2139ZM29.6783 30.1643V15.8928C37.0948 20.3144 44.357 25.112 51.2825 30.1643H29.6783ZM88.94 62.498C85.8032 59.2112 82.5852 55.9993 79.2859 52.8623C78.3764 51.9965 77.4612 51.1377 76.5404 50.2859C70.921 45.0834 65.1168 40.1356 59.1278 35.4425L59.0578 35.3876H29.16V62.9407H89.3624L88.94 62.498ZM29.6783 62.4184V35.9099H58.8803C64.6552 40.4373 70.2737 45.2179 75.7358 50.2519C76.6842 51.1255 77.6262 52.0061 78.5617 52.8936C81.8319 55.991 85.0258 59.166 88.1432 62.4184H29.6783ZM3.50818 67.6417V68.164H23.9773V75.7378H3.50818V76.2602H24.4956V67.6417H3.50818ZM29.16 80.9612V86.2537L29.6783 86.2054V81.4835H109.492V80.9612H29.16ZM109.492 68.164V67.6417H29.16V76.2602H109.492V75.7378H29.6783V68.164H109.492ZM61.092 30.1643C51.1492 22.4343 40.6489 15.4615 29.6783 9.3036V4.01498L29.16 4.0633V9.39286L29.5591 9.83508C40.485 15.9762 50.9428 22.9276 60.8458 30.6318L60.9158 30.6866H109.492V30.1643H61.092ZM23.9773 30.1643H3.50818V30.6866H24.4956V4.49945L23.9773 4.54776V30.1643ZM109.492 35.3876H66.7878L67.3463 35.8499C72.6041 40.2101 77.7665 44.8344 82.8335 49.723C83.5539 50.4177 84.2717 51.1181 84.9869 51.8241C88.5475 55.3303 92.0384 58.9509 95.4599 62.686L95.8872 62.9407H109.492V62.4184H95.9199C92.5355 58.7202 89.0778 55.1292 85.5466 51.6452C84.8405 50.9479 84.1318 50.2554 83.4205 49.5676C78.4632 44.7739 73.4001 40.2214 68.2312 35.9099H109.492V35.3876ZM3.50818 80.9612V81.4835H23.9773V86.7382L24.4956 86.6898V80.9612H3.50818ZM3.50818 35.3876V35.9099H23.9773V62.4184H3.50818V62.9407H24.4956V35.3876H3.50818ZM52.2321 30.2139C44.9789 24.89 37.3474 19.8417 29.5513 15.2099L29.16 14.9774V30.6866H52.8761L52.2321 30.2139ZM29.6783 30.1643V15.8928C37.0948 20.3144 44.357 25.112 51.2825 30.1643H29.6783ZM88.94 62.498C85.8032 59.2112 82.5852 55.9993 79.2859 52.8623C78.3764 51.9965 77.4612 51.1377 76.5404 50.2859C70.921 45.0834 65.1168 40.1356 59.1278 35.4425L59.0578 35.3876H29.16V62.9407H89.3624L88.94 62.498ZM29.6783 62.4184V35.9099H58.8803C64.6552 40.4373 70.2737 45.2179 75.7358 50.2519C76.6842 51.1255 77.6262 52.0061 78.5617 52.8936C81.8319 55.991 85.0258 59.166 88.1432 62.4184H29.6783ZM52.2321 30.2139C44.9789 24.89 37.3474 19.8417 29.5513 15.2099L29.16 14.9774V30.6866H52.8761L52.2321 30.2139ZM29.6783 30.1643V15.8928C37.0948 20.3144 44.357 25.112 51.2825 30.1643H29.6783ZM88.94 62.498C85.8032 59.2112 82.5852 55.9993 79.2859 52.8623C78.3764 51.9965 77.4612 51.1377 76.5404 50.2859C70.921 45.0834 65.1168 40.1356 59.1278 35.4425L59.0578 35.3876H29.16V62.9407H89.3624L88.94 62.498ZM29.6783 62.4184V35.9099H58.8803C64.6552 40.4373 70.2737 45.2179 75.7358 50.2519C76.6842 51.1255 77.6262 52.0061 78.5617 52.8936C81.8319 55.991 85.0258 59.166 88.1432 62.4184H29.6783Z" fill="#3F3D56"/>
<path d="M65.7872 47.9763C65.7872 45.6765 67.6371 40.2192 69.919 40.2192C72.2009 40.2192 74.0507 45.6765 74.0507 47.9763C74.0507 49.0807 73.6154 50.1398 72.8406 50.9208C72.0657 51.7017 71.0148 52.1404 69.919 52.1404C68.8232 52.1404 67.7722 51.7017 66.9974 50.9208C66.2225 50.1398 65.7872 49.0807 65.7872 47.9763Z" fill="#F2F2F2"/>
<path d="M69.919 58.1071C69.9145 58.1071 69.9101 58.1062 69.906 58.1045C69.9019 58.1028 69.8981 58.1003 69.895 58.0971C69.8918 58.0939 69.8893 58.0901 69.8876 58.086C69.8859 58.0818 69.885 58.0774 69.885 58.0729V43.7163C69.885 43.7072 69.8886 43.6985 69.895 43.6921C69.9013 43.6857 69.91 43.6821 69.919 43.6821C69.928 43.6821 69.9366 43.6857 69.943 43.6921C69.9494 43.6985 69.953 43.7072 69.953 43.7163V58.0729C69.953 58.0774 69.9521 58.0818 69.9504 58.086C69.9487 58.0901 69.9462 58.0939 69.943 58.0971C69.9399 58.1003 69.9361 58.1028 69.932 58.1045C69.9279 58.1062 69.9235 58.1071 69.919 58.1071Z" fill="#3F3D56"/>
<path d="M69.9191 46.488C69.9146 46.488 69.9102 46.4871 69.9061 46.4854C69.9019 46.4836 69.8982 46.4811 69.8951 46.4779L68.2597 44.8298C68.2565 44.8266 68.254 44.8228 68.2523 44.8187C68.2506 44.8145 68.2498 44.8101 68.2498 44.8056C68.2498 44.8011 68.2506 44.7966 68.2523 44.7925C68.2541 44.7883 68.2566 44.7845 68.2597 44.7814C68.2629 44.7782 68.2666 44.7757 68.2707 44.7739C68.2749 44.7722 68.2793 44.7713 68.2837 44.7713C68.2882 44.7713 68.2926 44.7722 68.2967 44.7739C68.3009 44.7757 68.3046 44.7782 68.3078 44.7814L69.9431 46.4295C69.9479 46.4343 69.9511 46.4404 69.9524 46.447C69.9537 46.4537 69.953 46.4606 69.9505 46.4668C69.9479 46.4731 69.9435 46.4784 69.938 46.4822C69.9324 46.486 69.9258 46.488 69.9191 46.488Z" fill="#3F3D56"/>
<path d="M69.919 49.3412C69.9123 49.3412 69.9057 49.3392 69.9001 49.3355C69.8945 49.3317 69.8902 49.3264 69.8876 49.3201C69.885 49.3138 69.8844 49.307 69.8857 49.3003C69.887 49.2937 69.8902 49.2876 69.895 49.2828L72.6336 46.5226C72.6368 46.5195 72.6405 46.5169 72.6447 46.5152C72.6488 46.5135 72.6532 46.5126 72.6577 46.5126C72.6621 46.5126 72.6665 46.5135 72.6707 46.5152C72.6748 46.5169 72.6785 46.5194 72.6817 46.5226C72.6848 46.5258 72.6873 46.5296 72.689 46.5337C72.6908 46.5379 72.6916 46.5423 72.6916 46.5468C72.6916 46.5513 72.6907 46.5558 72.689 46.5599C72.6873 46.5641 72.6848 46.5679 72.6817 46.5711L69.943 49.3312C69.9399 49.3344 69.9361 49.3369 69.932 49.3386C69.9279 49.3404 69.9234 49.3412 69.919 49.3412Z" fill="#3F3D56"/>
<path d="M88.9541 36.2238C88.9541 33.924 90.804 28.4667 93.0859 28.4667C95.3678 28.4667 97.2176 33.924 97.2176 36.2238C97.2169 37.3277 96.7813 38.3862 96.0065 39.1666C95.2318 39.947 94.1812 40.3854 93.0859 40.3854C91.9905 40.3854 90.9399 39.947 90.1652 39.1666C89.3904 38.3862 88.9548 37.3277 88.9541 36.2238Z" fill="#6C63FF"/>
<path d="M93.0859 46.3546C93.0814 46.3546 93.077 46.3538 93.0729 46.352C93.0687 46.3503 93.065 46.3478 93.0618 46.3446C93.0587 46.3414 93.0562 46.3377 93.0545 46.3335C93.0528 46.3293 93.0519 46.3249 93.0519 46.3204V31.9638C93.0519 31.9548 93.0555 31.946 93.0618 31.9396C93.0682 31.9332 93.0769 31.9296 93.0859 31.9296C93.0949 31.9296 93.1035 31.9332 93.1099 31.9396C93.1162 31.946 93.1198 31.9548 93.1198 31.9638V46.3204C93.1198 46.3249 93.119 46.3293 93.1172 46.3335C93.1155 46.3377 93.113 46.3414 93.1099 46.3446C93.1067 46.3478 93.103 46.3503 93.0989 46.352C93.0947 46.3538 93.0903 46.3546 93.0859 46.3546Z" fill="#3F3D56"/>
<path d="M93.0858 34.7355C93.0814 34.7355 93.0769 34.7346 93.0728 34.7329C93.0687 34.7311 93.065 34.7286 93.0618 34.7254L91.4265 33.0773C91.4201 33.0709 91.4165 33.0621 91.4165 33.0531C91.4165 33.044 91.4201 33.0353 91.4265 33.0289C91.4328 33.0224 91.4415 33.0188 91.4505 33.0188C91.4595 33.0188 91.4681 33.0224 91.4745 33.0289L93.1098 34.677C93.1146 34.6818 93.1178 34.6879 93.1191 34.6945C93.1205 34.7012 93.1198 34.7081 93.1172 34.7143C93.1146 34.7206 93.1103 34.7259 93.1047 34.7297C93.0991 34.7334 93.0925 34.7355 93.0858 34.7355H93.0858Z" fill="#3F3D56"/>
<path d="M93.0859 37.5887C93.0791 37.5887 93.0726 37.5867 93.067 37.583C93.0614 37.5792 93.057 37.5739 93.0545 37.5676C93.0519 37.5613 93.0512 37.5545 93.0525 37.5478C93.0538 37.5412 93.0571 37.5351 93.0618 37.5303L95.8005 34.7701C95.8069 34.7638 95.8155 34.7602 95.8245 34.7603C95.8335 34.7603 95.8421 34.7639 95.8484 34.7703C95.8548 34.7767 95.8583 34.7853 95.8584 34.7944C95.8584 34.8034 95.8549 34.8121 95.8485 34.8186L93.1099 37.5787C93.1067 37.5819 93.103 37.5844 93.0989 37.5861C93.0947 37.5879 93.0903 37.5887 93.0859 37.5887Z" fill="#3F3D56"/>
<path d="M38.2273 37.399C38.2273 35.0992 40.0771 29.6419 42.359 29.6419C44.6409 29.6419 46.4908 35.0992 46.4908 37.399C46.4908 38.5034 46.0555 39.5626 45.2806 40.3435C44.5058 41.1244 43.4549 41.5631 42.359 41.5631C41.2632 41.5631 40.2123 41.1244 39.4375 40.3435C38.6626 39.5626 38.2273 38.5034 38.2273 37.399Z" fill="#6C63FF"/>
<path d="M42.359 47.5299C42.3546 47.5299 42.3502 47.529 42.346 47.5273C42.3419 47.5256 42.3382 47.523 42.335 47.5199C42.3319 47.5167 42.3294 47.5129 42.3277 47.5088C42.3259 47.5046 42.3251 47.5002 42.3251 47.4957V33.1391C42.3251 33.13 42.3287 33.1213 42.335 33.1149C42.3414 33.1085 42.35 33.1049 42.359 33.1049C42.3681 33.1049 42.3767 33.1085 42.3831 33.1149C42.3894 33.1213 42.393 33.13 42.393 33.1391V47.4957C42.393 47.5002 42.3921 47.5046 42.3904 47.5088C42.3887 47.5129 42.3862 47.5167 42.3831 47.5199C42.3799 47.523 42.3762 47.5256 42.372 47.5273C42.3679 47.529 42.3635 47.5299 42.359 47.5299Z" fill="#3F3D56"/>
<path d="M42.359 35.9107C42.3546 35.9107 42.3501 35.9098 42.346 35.9081C42.3419 35.9064 42.3381 35.9039 42.335 35.9007L40.6996 34.2525C40.6965 34.2494 40.694 34.2456 40.6923 34.2414C40.6906 34.2373 40.6897 34.2328 40.6897 34.2283C40.6897 34.2238 40.6906 34.2194 40.6923 34.2152C40.694 34.2111 40.6965 34.2073 40.6996 34.2041C40.7028 34.2009 40.7065 34.1984 40.7107 34.1967C40.7148 34.195 40.7192 34.1941 40.7237 34.1941C40.7281 34.1941 40.7326 34.195 40.7367 34.1967C40.7408 34.1984 40.7445 34.2009 40.7477 34.2041L42.383 35.8523C42.3878 35.8571 42.391 35.8632 42.3923 35.8698C42.3936 35.8764 42.393 35.8833 42.3904 35.8896C42.3878 35.8958 42.3835 35.9012 42.3779 35.9049C42.3723 35.9087 42.3657 35.9107 42.359 35.9107Z" fill="#3F3D56"/>
<path d="M42.359 38.764C42.3523 38.764 42.3458 38.762 42.3402 38.7582C42.3346 38.7545 42.3302 38.7491 42.3277 38.7429C42.3251 38.7366 42.3244 38.7297 42.3257 38.7231C42.327 38.7164 42.3303 38.7103 42.335 38.7056L45.0737 35.9454C45.0801 35.939 45.0887 35.9354 45.0977 35.9354C45.1067 35.9354 45.1153 35.939 45.1217 35.9454C45.1281 35.9519 45.1316 35.9606 45.1316 35.9696C45.1317 35.9787 45.1281 35.9874 45.1218 35.9938L42.3831 38.754C42.3799 38.7572 42.3762 38.7597 42.3721 38.7614C42.3679 38.7631 42.3635 38.764 42.359 38.764Z" fill="#3F3D56"/>
<path d="M76.3472 25.9261C74.0005 25.9261 71.7065 25.2247 69.7553 23.9108C67.8041 22.5968 66.2833 20.7292 65.3852 18.5441C64.4872 16.3591 64.2522 13.9547 64.71 11.635C65.1679 9.31537 66.2979 7.18464 67.9573 5.51226C69.6167 3.83988 71.7308 2.70098 74.0324 2.23957C76.334 1.77817 78.7197 2.01498 80.8878 2.92006C83.0559 3.82514 84.909 5.35785 86.2127 7.32436C87.5165 9.29086 88.2124 11.6028 88.2124 13.9679C88.2088 17.1383 86.9576 20.1779 84.7332 22.4197C82.5088 24.6615 79.493 25.9225 76.3472 25.9261ZM76.3472 2.17032C74.032 2.17032 71.7688 2.86223 69.8438 4.15857C67.9187 5.45491 66.4184 7.29745 65.5324 9.45319C64.6464 11.6089 64.4146 13.981 64.8663 16.2695C65.3179 18.5581 66.4328 20.6602 68.0699 22.3101C69.707 23.9601 71.7928 25.0837 74.0635 25.5389C76.3342 25.9941 78.6879 25.7605 80.8269 24.8675C82.9658 23.9746 84.794 22.4625 86.0803 20.5224C87.3666 18.5822 88.0531 16.3013 88.0531 13.9679C88.0496 10.8401 86.8152 7.84138 84.6206 5.62966C82.4261 3.41795 79.4507 2.17385 76.3472 2.17032V2.17032Z" fill="#CCCCCC"/>
<path d="M76.3472 13.0851C76.3261 13.0851 76.3058 13.0767 76.2909 13.0616C76.276 13.0466 76.2676 13.0262 76.2676 13.0049V2.09008C76.2676 2.0688 76.276 2.04838 76.2909 2.03333C76.3058 2.01828 76.3261 2.00983 76.3472 2.00983C76.3683 2.00983 76.3886 2.01828 76.4035 2.03333C76.4185 2.04838 76.4268 2.0688 76.4268 2.09008V13.0049C76.4268 13.0262 76.4184 13.0466 76.4035 13.0616C76.3886 13.0767 76.3683 13.0851 76.3472 13.0851Z" fill="#CCCCCC"/>
<path d="M88.1327 14.0482H77.3028C77.2817 14.0482 77.2614 14.0398 77.2465 14.0247C77.2315 14.0097 77.2231 13.9892 77.2231 13.968C77.2231 13.9467 77.2315 13.9263 77.2465 13.9112C77.2614 13.8962 77.2817 13.8877 77.3028 13.8877H88.1327C88.1538 13.8877 88.1741 13.8962 88.189 13.9112C88.2039 13.9263 88.2123 13.9467 88.2123 13.968C88.2123 13.9892 88.2039 14.0097 88.189 14.0247C88.1741 14.0398 88.1538 14.0482 88.1327 14.0482Z" fill="#CCCCCC"/>
<path d="M75.3916 14.0482H64.5668C64.5457 14.0482 64.5254 14.0398 64.5105 14.0247C64.4956 14.0097 64.4872 13.9892 64.4872 13.968C64.4872 13.9467 64.4956 13.9263 64.5105 13.9112C64.5254 13.8962 64.5457 13.8877 64.5668 13.8877H75.3916C75.4127 13.8877 75.433 13.8962 75.4479 13.9112C75.4629 13.9263 75.4712 13.9467 75.4712 13.968C75.4712 13.9892 75.4629 14.0097 75.4479 14.0247C75.433 14.0398 75.4127 14.0482 75.3916 14.0482Z" fill="#CCCCCC"/>
<path d="M76.3472 25.9261C76.3261 25.9261 76.3058 25.9176 76.2909 25.9026C76.276 25.8875 76.2676 25.8671 76.2676 25.8458V14.931C76.2676 14.9097 76.276 14.8893 76.2909 14.8743C76.3058 14.8592 76.3261 14.8508 76.3472 14.8508C76.3683 14.8508 76.3886 14.8592 76.4035 14.8743C76.4185 14.8893 76.4268 14.9097 76.4268 14.931V25.8458C76.4268 25.8671 76.4184 25.8875 76.4035 25.9026C76.3886 25.9176 76.3683 25.9261 76.3472 25.9261Z" fill="#CCCCCC"/>
<path d="M77.0493 13.396C77.0336 13.396 77.0182 13.3913 77.0051 13.3825C76.992 13.3737 76.9818 13.3612 76.9758 13.3465C76.9698 13.3318 76.9682 13.3157 76.9713 13.3001C76.9743 13.2846 76.9819 13.2703 76.993 13.259L84.6173 5.57505C84.6322 5.56009 84.6524 5.55172 84.6735 5.55176C84.6946 5.5518 84.7148 5.56025 84.7297 5.57526C84.7446 5.59027 84.7529 5.61062 84.753 5.63185C84.753 5.65308 84.7447 5.67346 84.7299 5.68853L77.1056 13.3725C77.0983 13.38 77.0895 13.3859 77.0798 13.39C77.0702 13.394 77.0598 13.3961 77.0493 13.396Z" fill="#CCCCCC"/>
<path d="M75.6452 13.396C75.6347 13.3961 75.6244 13.394 75.6147 13.39C75.605 13.3859 75.5963 13.38 75.5889 13.3725L67.9646 5.68853C67.9498 5.67346 67.9415 5.65308 67.9415 5.63185C67.9416 5.61062 67.95 5.59027 67.9648 5.57526C67.9797 5.56025 67.9999 5.5518 68.021 5.55176C68.0421 5.55172 68.0623 5.56009 68.0772 5.57505L75.7015 13.259C75.7126 13.2703 75.7202 13.2846 75.7233 13.3001C75.7263 13.3157 75.7248 13.3318 75.7187 13.3465C75.7127 13.3612 75.7025 13.3737 75.6894 13.3825C75.6763 13.3913 75.6609 13.396 75.6452 13.396Z" fill="#CCCCCC"/>
<path d="M84.6736 22.3844C84.6632 22.3844 84.6528 22.3823 84.6431 22.3783C84.6335 22.3742 84.6247 22.3683 84.6173 22.3608L76.9931 14.6768C76.9782 14.6618 76.9699 14.6414 76.97 14.6202C76.97 14.5989 76.9784 14.5786 76.9933 14.5636C77.0082 14.5486 77.0284 14.5401 77.0495 14.5401C77.0705 14.54 77.0907 14.5484 77.1057 14.5634L84.7299 22.2474C84.7411 22.2586 84.7486 22.2729 84.7517 22.2884C84.7548 22.304 84.7532 22.3202 84.7472 22.3348C84.7411 22.3495 84.7309 22.362 84.7178 22.3708C84.7048 22.3796 84.6894 22.3844 84.6736 22.3844V22.3844Z" fill="#CCCCCC"/>
<path d="M68.0209 22.3844C68.0052 22.3844 67.9898 22.3796 67.9767 22.3708C67.9636 22.362 67.9534 22.3495 67.9473 22.3348C67.9413 22.3202 67.9397 22.304 67.9428 22.2884C67.9459 22.2729 67.9535 22.2586 67.9646 22.2474L75.5888 14.5634C75.6038 14.5483 75.624 14.5399 75.6452 14.5399C75.6663 14.5399 75.6865 14.5483 75.7014 14.5634C75.7164 14.5784 75.7248 14.5988 75.7248 14.6201C75.7248 14.6414 75.7164 14.6618 75.7014 14.6768L68.0772 22.3608C68.0698 22.3683 68.0611 22.3742 68.0514 22.3783C68.0417 22.3823 68.0314 22.3844 68.0209 22.3844Z" fill="#CCCCCC"/>
<path d="M76.3472 22.1942C74.7329 22.1942 73.1548 21.7117 71.8125 20.8078C70.4702 19.9039 69.424 18.6191 68.8063 17.116C68.1885 15.6128 68.0268 13.9588 68.3418 12.3631C68.6567 10.7673 69.4341 9.30157 70.5756 8.15111C71.7171 7.00065 73.1715 6.21718 74.7548 5.89977C76.3381 5.58236 77.9793 5.74526 79.4708 6.36789C80.9622 6.99051 82.237 8.04489 83.1339 9.39769C84.0308 10.7505 84.5095 12.3409 84.5095 13.9679C84.507 16.1489 83.6463 18.2399 82.1161 19.782C80.5859 21.3242 78.5112 22.1917 76.3472 22.1942ZM76.3472 5.90222C74.7644 5.90222 73.2171 6.37527 71.901 7.26154C70.5849 8.14781 69.5591 9.40751 68.9534 10.8813C68.3477 12.3551 68.1892 13.9769 68.498 15.5415C68.8068 17.1061 69.569 18.5433 70.6882 19.6713C71.8075 20.7993 73.2335 21.5675 74.7859 21.8787C76.3383 22.1899 77.9475 22.0302 79.4098 21.4197C80.8722 20.8092 82.1221 19.7754 83.0015 18.449C83.8808 17.1226 84.3502 15.5632 84.3502 13.9679C84.3478 11.8295 83.5039 9.77938 82.0035 8.26728C80.5032 6.75519 78.469 5.90464 76.3472 5.90222Z" fill="#CCCCCC"/>
<path d="M76.3472 14.931C76.8749 14.931 77.3028 14.4998 77.3028 13.968C77.3028 13.4361 76.8749 13.0049 76.3472 13.0049C75.8194 13.0049 75.3916 13.4361 75.3916 13.968C75.3916 14.4998 75.8194 14.931 76.3472 14.931Z" fill="#3F3D56"/>
<path d="M72.6477 30.2355L71.8082 30.26L75.9058 13.5912L76.6674 13.8254L72.6477 30.2355Z" fill="#3F3D56"/>
<path d="M80.0467 30.2355L80.8862 30.26L76.7886 13.5912L76.027 13.8254L80.0467 30.2355Z" fill="#3F3D56"/>
<path d="M77.6214 4.49774H74.9935V5.94235H77.6214V4.49774Z" fill="#CCCCCC"/>
<path d="M76.1879 4.81879H75.1527V5.94237H76.1879V4.81879Z" fill="white"/>
<path d="M77.4621 4.81879H76.4269V5.94237H77.4621V4.81879Z" fill="white"/>
<path d="M76.3074 7.50735C75.9063 7.50689 75.5217 7.34609 75.2381 7.06022C74.9544 6.77435 74.7949 6.38677 74.7944 5.98249V5.94236C74.7945 5.84661 74.8323 5.75481 74.8995 5.68711C74.9667 5.6194 75.0578 5.58132 75.1528 5.58121H77.4621C77.5571 5.58132 77.6482 5.6194 77.7154 5.68711C77.7825 5.75481 77.8203 5.84661 77.8204 5.94236V5.98249C77.82 6.38677 77.6604 6.77435 77.3768 7.06022C77.0931 7.34609 76.7086 7.50689 76.3074 7.50735Z" fill="#CCCCCC"/>
<path d="M77.5229 4.85889H75.0919C75.058 4.85889 75.0246 4.85015 74.995 4.8335C74.9653 4.81684 74.9404 4.79283 74.9226 4.76373C74.9047 4.73464 74.8945 4.70143 74.893 4.66726C74.8915 4.63309 74.8987 4.5991 74.9139 4.56851L75.3916 3.60544C75.4081 3.57203 75.4335 3.54393 75.4649 3.52433C75.4964 3.50473 75.5327 3.49441 75.5697 3.49454H77.0451C77.0821 3.49441 77.1184 3.50473 77.1499 3.52433C77.1813 3.54393 77.2067 3.57203 77.2232 3.60544L77.701 4.56851C77.7161 4.5991 77.7233 4.63309 77.7218 4.66726C77.7203 4.70143 77.7101 4.73464 77.6923 4.76373C77.6744 4.79283 77.6495 4.81684 77.6198 4.8335C77.5902 4.85015 77.5568 4.85889 77.5229 4.85889H77.5229Z" fill="#6C63FF"/>
<path d="M84.7085 7.70798H82.0807V9.15259H84.7085V7.70798Z" fill="#CCCCCC"/>
<path d="M83.2752 8.02902H82.24V9.15261H83.2752V8.02902Z" fill="white"/>
<path d="M84.5494 8.02902H83.5142V9.15261H84.5494V8.02902Z" fill="white"/>
<path d="M83.3946 10.7176C82.9935 10.7171 82.6089 10.5563 82.3252 10.2705C82.0416 9.98459 81.882 9.597 81.8816 9.19272V9.15259C81.8817 9.05684 81.9195 8.96505 81.9867 8.89734C82.0538 8.82963 82.1449 8.79155 82.2399 8.79144H84.5493C84.6443 8.79155 84.7353 8.82963 84.8025 8.89734C84.8697 8.96505 84.9075 9.05684 84.9076 9.15259V9.19272C84.9071 9.597 84.7476 9.98459 84.4639 10.2705C84.1803 10.5563 83.7957 10.7171 83.3946 10.7176Z" fill="#CCCCCC"/>
<path d="M82.6569 6.78503C82.6347 6.78496 82.613 6.79116 82.5941 6.80292C82.5752 6.81468 82.56 6.83154 82.5501 6.85158L82.0723 7.81465C82.0632 7.833 82.0589 7.8534 82.0598 7.8739C82.0607 7.8944 82.0668 7.91433 82.0775 7.93178C82.0882 7.94924 82.1032 7.96365 82.121 7.97364C82.1388 7.98363 82.1588 7.98888 82.1791 7.98887H84.6101C84.6305 7.98888 84.6505 7.98363 84.6683 7.97364C84.6861 7.96365 84.701 7.94924 84.7118 7.93178C84.7225 7.91433 84.7286 7.8944 84.7295 7.8739C84.7304 7.8534 84.7261 7.833 84.717 7.81465L84.2392 6.85158C84.2293 6.83154 84.2141 6.81468 84.1952 6.80292C84.1763 6.79116 84.1545 6.78496 84.1323 6.78503H82.6569Z" fill="#6C63FF"/>
<path d="M87.4957 14.931H84.8678V16.3756H87.4957V14.931Z" fill="#CCCCCC"/>
<path d="M86.0623 15.252H85.0271V16.3756H86.0623V15.252Z" fill="white"/>
<path d="M87.3365 15.252H86.3013V16.3756H87.3365V15.252Z" fill="white"/>
<path d="M86.1818 17.9406C85.7807 17.9401 85.3961 17.7793 85.1125 17.4935C84.8288 17.2076 84.6693 16.82 84.6688 16.4157V16.3756C84.6689 16.2799 84.7067 16.1881 84.7739 16.1204C84.8411 16.0527 84.9322 16.0146 85.0272 16.0145H87.3365C87.4315 16.0146 87.5226 16.0527 87.5898 16.1204C87.6569 16.1881 87.6947 16.2799 87.6948 16.3756V16.4157C87.6944 16.82 87.5348 17.2076 87.2512 17.4935C86.9675 17.7793 86.583 17.9401 86.1818 17.9406Z" fill="#CCCCCC"/>
<path d="M87.3973 15.2922H84.9663C84.9324 15.2922 84.899 15.2834 84.8693 15.2668C84.8397 15.2501 84.8148 15.2261 84.7969 15.197C84.7791 15.1679 84.7689 15.1347 84.7674 15.1006C84.7659 15.0664 84.7731 15.0324 84.7882 15.0018L85.266 14.0387C85.2825 14.0053 85.3078 13.9772 85.3393 13.9576C85.3708 13.938 85.4071 13.9277 85.4441 13.9278H86.9195C86.9565 13.9277 86.9928 13.938 87.0243 13.9576C87.0557 13.9772 87.0811 14.0053 87.0976 14.0387L87.5753 15.0018C87.5905 15.0324 87.5977 15.0664 87.5962 15.1006C87.5946 15.1347 87.5845 15.1679 87.5666 15.197C87.5488 15.2261 87.5239 15.2501 87.4942 15.2668C87.4646 15.2834 87.4312 15.2922 87.3973 15.2922H87.3973Z" fill="#6C63FF"/>
<path d="M84.5494 21.6725H81.9215V23.1171H84.5494V21.6725Z" fill="#CCCCCC"/>
<path d="M83.1159 21.9936H82.0807V23.1171H83.1159V21.9936Z" fill="white"/>
<path d="M84.3901 21.9936H83.3549V23.1171H84.3901V21.9936Z" fill="white"/>
<path d="M83.2354 24.6821C82.8343 24.6817 82.4497 24.5209 82.1661 24.235C81.8824 23.9491 81.7229 23.5615 81.7224 23.1573V23.1171C81.7225 23.0214 81.7603 22.9296 81.8275 22.8619C81.8947 22.7942 81.9858 22.7561 82.0808 22.756H84.3901C84.4851 22.7561 84.5762 22.7942 84.6433 22.8619C84.7105 22.9296 84.7483 23.0214 84.7484 23.1171V23.1573C84.748 23.5615 84.5884 23.9491 84.3048 24.235C84.0211 24.5209 83.6366 24.6817 83.2354 24.6821Z" fill="#CCCCCC"/>
<path d="M84.4509 22.0337H82.0199C81.986 22.0337 81.9526 22.025 81.9229 22.0083C81.8933 21.9916 81.8684 21.9676 81.8505 21.9385C81.8327 21.9094 81.8225 21.8762 81.821 21.8421C81.8195 21.8079 81.8266 21.7739 81.8418 21.7433L82.3196 20.7802C82.336 20.7468 82.3614 20.7187 82.3929 20.6991C82.4244 20.6795 82.4607 20.6692 82.4977 20.6693H83.9731C84.0101 20.6692 84.0464 20.6795 84.0778 20.6991C84.1093 20.7187 84.1347 20.7468 84.1511 20.7802L84.6289 21.7433C84.6441 21.7739 84.6513 21.8079 84.6498 21.8421C84.6482 21.8762 84.6381 21.9094 84.6202 21.9385C84.6024 21.9676 84.5775 21.9916 84.5478 22.0083C84.5182 22.025 84.4848 22.0337 84.4509 22.0337H84.4509Z" fill="#6C63FF"/>
<path d="M67.9859 9.15259H70.6138V7.70798H67.9859V9.15259Z" fill="#CCCCCC"/>
<path d="M69.4193 9.15259H70.4545V8.029H69.4193V9.15259Z" fill="white"/>
<path d="M68.1452 9.15259H69.1804V8.029H68.1452V9.15259Z" fill="white"/>
<path d="M69.2999 10.7176C68.8987 10.7171 68.5142 10.5563 68.2305 10.2705C67.9469 9.98459 67.7873 9.597 67.7869 9.19272V9.15259C67.787 9.05684 67.8248 8.96505 67.8919 8.89734C67.9591 8.82963 68.0502 8.79155 68.1452 8.79144H70.4545C70.5495 8.79155 70.6406 8.82963 70.7078 8.89734C70.775 8.96505 70.8128 9.05684 70.8129 9.15259V9.19272C70.8124 9.597 70.6529 9.98459 70.3692 10.2705C70.0856 10.5563 69.701 10.7171 69.2999 10.7176Z" fill="#CCCCCC"/>
<path d="M70.5153 8.06913H68.0843C68.0504 8.06913 68.017 8.06039 67.9874 8.04373C67.9577 8.02708 67.9328 8.00306 67.915 7.97397C67.8971 7.94487 67.887 7.91167 67.8855 7.8775C67.8839 7.84333 67.8911 7.80934 67.9063 7.77875L68.3841 6.81567C68.4005 6.78227 68.4259 6.75417 68.4574 6.73457C68.4888 6.71496 68.5251 6.70464 68.5621 6.70477H70.0375C70.0745 6.70464 70.1108 6.71496 70.1423 6.73456C70.1738 6.75417 70.1992 6.78227 70.2156 6.81567L70.6934 7.77875C70.7086 7.80934 70.7157 7.84333 70.7142 7.8775C70.7127 7.91167 70.7025 7.94487 70.6847 7.97397C70.6668 8.00306 70.6419 8.02708 70.6123 8.04373C70.5826 8.06039 70.5493 8.06913 70.5153 8.06913H70.5153Z" fill="#6C63FF"/>
<path d="M65.1988 16.3756H67.8267V14.931H65.1988V16.3756Z" fill="#CCCCCC"/>
<path d="M66.6321 16.3756H67.6674V15.2521H66.6321V16.3756Z" fill="white"/>
<path d="M65.3581 16.3756H66.3933V15.2521H65.3581V16.3756Z" fill="white"/>
<path d="M66.5126 17.9406C66.1115 17.9401 65.7269 17.7793 65.4433 17.4935C65.1596 17.2076 65.0001 16.82 64.9996 16.4157V16.3756C64.9997 16.2799 65.0375 16.1881 65.1047 16.1204C65.1719 16.0527 65.263 16.0146 65.358 16.0145H67.6673C67.7623 16.0146 67.8534 16.0527 67.9206 16.1204C67.9877 16.1881 68.0255 16.2799 68.0256 16.3756V16.4157C68.0252 16.82 67.8656 17.2076 67.582 17.4935C67.2983 17.7793 66.9138 17.9401 66.5126 17.9406Z" fill="#CCCCCC"/>
<path d="M67.7282 15.2922H65.2972C65.2633 15.2922 65.2299 15.2834 65.2003 15.2668C65.1706 15.2501 65.1457 15.2261 65.1279 15.197C65.11 15.1679 65.0999 15.1347 65.0983 15.1006C65.0968 15.0664 65.104 15.0324 65.1192 15.0018L65.597 14.0387C65.6134 14.0053 65.6388 13.9772 65.6703 13.9576C65.7017 13.938 65.738 13.9277 65.775 13.9278H67.2504C67.2874 13.9277 67.3237 13.938 67.3552 13.9576C67.3867 13.9772 67.4121 14.0053 67.4285 14.0387L67.9063 15.0018C67.9214 15.0324 67.9286 15.0664 67.9271 15.1006C67.9256 15.1347 67.9154 15.1679 67.8976 15.197C67.8797 15.2261 67.8548 15.2501 67.8252 15.2668C67.7955 15.2834 67.7621 15.2922 67.7282 15.2922H67.7282Z" fill="#6C63FF"/>
<path d="M68.1451 23.1171H70.7729V21.6725H68.1451V23.1171Z" fill="#CCCCCC"/>
<path d="M69.5786 23.1171H70.6138V21.9935H69.5786V23.1171Z" fill="white"/>
<path d="M68.3044 23.1171H69.3396V21.9935H68.3044V23.1171Z" fill="white"/>
<path d="M69.459 24.6821C69.0579 24.6817 68.6733 24.5209 68.3897 24.235C68.1061 23.9491 67.9465 23.5615 67.946 23.1573V23.1171C67.9462 23.0214 67.9839 22.9296 68.0511 22.8619C68.1183 22.7942 68.2094 22.7561 68.3044 22.756H70.6137C70.7087 22.7561 70.7998 22.7942 70.867 22.8619C70.9342 22.9296 70.9719 23.0214 70.9721 23.1171V23.1573C70.9716 23.5615 70.812 23.9491 70.5284 24.235C70.2448 24.5209 69.8602 24.6817 69.459 24.6821Z" fill="#CCCCCC"/>
<path d="M70.6745 22.0337H68.2435C68.2096 22.0337 68.1762 22.025 68.1466 22.0083C68.1169 21.9916 68.092 21.9676 68.0742 21.9385C68.0563 21.9094 68.0462 21.8762 68.0446 21.8421C68.0431 21.8079 68.0503 21.7739 68.0655 21.7433L68.5432 20.7802C68.5597 20.7468 68.5851 20.7187 68.6165 20.6991C68.648 20.6795 68.6843 20.6692 68.7213 20.6693H70.1967C70.2337 20.6692 70.27 20.6795 70.3015 20.6991C70.333 20.7187 70.3583 20.7468 70.3748 20.7802L70.8526 21.7433C70.8677 21.7739 70.8749 21.8079 70.8734 21.8421C70.8719 21.8762 70.8617 21.9094 70.8439 21.9385C70.826 21.9676 70.8011 21.9916 70.7715 22.0083C70.7418 22.025 70.7084 22.0337 70.6745 22.0337H70.6745Z" fill="#6C63FF"/>
<path d="M77.6214 24.7223H74.9935V26.1669H77.6214V24.7223Z" fill="#CCCCCC"/>
<path d="M76.1879 25.0433H75.1527V26.1669H76.1879V25.0433Z" fill="white"/>
<path d="M77.4621 25.0433H76.4269V26.1669H77.4621V25.0433Z" fill="white"/>
<path d="M75.1527 25.886C75.0788 25.8861 75.008 25.9157 74.9558 25.9684C74.9035 26.021 74.8741 26.0924 74.874 26.1669V26.207C74.8738 26.3968 74.9108 26.5849 74.9827 26.7603C75.0546 26.9357 75.1602 27.0952 75.2933 27.2295C75.4264 27.3638 75.5845 27.4703 75.7585 27.543C75.9325 27.6157 76.119 27.6531 76.3074 27.6531C76.4958 27.6531 76.6823 27.6157 76.8563 27.543C77.0303 27.4703 77.1884 27.3638 77.3215 27.2295C77.4546 27.0952 77.5601 26.9357 77.6321 26.7603C77.704 26.5849 77.741 26.3968 77.7408 26.207V26.1669C77.7407 26.0924 77.7113 26.021 77.659 25.9684C77.6068 25.9157 77.536 25.8861 77.4621 25.886H75.1527Z" fill="#CCCCCC"/>
<path d="M75.5697 23.7993C75.5475 23.7992 75.5257 23.8054 75.5068 23.8172C75.4879 23.829 75.4727 23.8458 75.4628 23.8659L74.985 24.8289C74.9759 24.8473 74.9716 24.8677 74.9725 24.8882C74.9734 24.9087 74.9795 24.9286 74.9902 24.9461C75.0009 24.9635 75.0159 24.9779 75.0337 24.9879C75.0515 24.9979 75.0715 25.0032 75.0919 25.0032H77.5229C77.5432 25.0032 77.5632 24.9979 77.581 24.9879C77.5988 24.9779 77.6138 24.9635 77.6245 24.9461C77.6352 24.9286 77.6413 24.9087 77.6422 24.8882C77.6431 24.8677 77.6388 24.8473 77.6297 24.8289L77.1519 23.8659C77.142 23.8458 77.1268 23.829 77.1079 23.8172C77.089 23.8054 77.0673 23.7992 77.0451 23.7993H75.5697Z" fill="#6C63FF"/>
<path d="M41.2495 44.7508C41.2734 44.7508 41.2962 44.7412 41.3131 44.7242C41.3299 44.7073 41.3394 44.6842 41.3394 44.6602C41.3394 44.6362 41.3299 44.6132 41.3131 44.5962C41.2962 44.5792 41.2734 44.5697 41.2495 44.5697H40.3959V44.2074H41.2495C41.2734 44.2074 41.2962 44.1979 41.3131 44.1809C41.3299 44.1639 41.3394 44.1409 41.3394 44.1169C41.3394 44.0928 41.3299 44.0698 41.3131 44.0528C41.2962 44.0358 41.2734 44.0263 41.2495 44.0263H33.9714C33.9476 44.0263 33.9248 44.0358 33.9079 44.0528C33.8911 44.0698 33.8816 44.0928 33.8816 44.1169C33.8816 44.1409 33.8911 44.1639 33.9079 44.1809C33.9248 44.1979 33.9476 44.2074 33.9714 44.2074H34.825V44.5697H33.9714C33.9476 44.5697 33.9248 44.5792 33.9079 44.5962C33.8911 44.6132 33.8816 44.6362 33.8816 44.6602C33.8816 44.6842 33.8911 44.7073 33.9079 44.7242C33.9248 44.7412 33.9476 44.7508 33.9714 44.7508H34.825V45.113H33.9714C33.9476 45.113 33.9248 45.1225 33.9079 45.1395C33.8911 45.1565 33.8816 45.1795 33.8816 45.2036C33.8816 45.2276 33.8911 45.2506 33.9079 45.2676C33.9248 45.2846 33.9476 45.2941 33.9714 45.2941H34.825V45.6563H34.0613C34.0136 45.6563 33.9679 45.6754 33.9342 45.7094C33.9005 45.7433 33.8816 45.7894 33.8816 45.8375C33.8816 45.8855 33.9005 45.9316 33.9342 45.9655C33.9679 45.9995 34.0136 46.0186 34.0613 46.0186H34.7884C34.7831 46.0331 34.7803 46.0484 34.7801 46.0638V47.3316C34.7801 47.3677 34.7943 47.4022 34.8196 47.4277C34.8449 47.4532 34.8792 47.4675 34.9149 47.4675C34.9506 47.4675 34.9849 47.4532 35.0102 47.4277C35.0355 47.4022 35.0497 47.3677 35.0497 47.3316V46.0638C35.0495 46.0484 35.0467 46.0331 35.0414 46.0186H40.1795C40.1742 46.0331 40.1715 46.0484 40.1713 46.0638V47.3316C40.1713 47.3677 40.1855 47.4022 40.2108 47.4277C40.2361 47.4532 40.2703 47.4675 40.3061 47.4675C40.3418 47.4675 40.3761 47.4532 40.4014 47.4277C40.4267 47.4022 40.4409 47.3677 40.4409 47.3316V46.0638C40.4407 46.0484 40.4379 46.0331 40.4326 46.0186H41.1597C41.2073 46.0186 41.2531 45.9995 41.2868 45.9655C41.3205 45.9316 41.3394 45.8855 41.3394 45.8375C41.3394 45.7894 41.3205 45.7433 41.2868 45.7094C41.2531 45.6754 41.2073 45.6563 41.1597 45.6563H40.3959V45.2941H41.2495C41.2734 45.2941 41.2962 45.2846 41.3131 45.2676C41.3299 45.2506 41.3394 45.2276 41.3394 45.2036C41.3394 45.1795 41.3299 45.1565 41.3131 45.1395C41.2962 45.1225 41.2734 45.113 41.2495 45.113H40.3959V44.7508H41.2495ZM35.0048 44.2074H40.2162V44.5697H35.0048V44.2074ZM40.2162 45.6563H35.0048V45.2941H40.2162V45.6563ZM40.2162 45.113H35.0048V44.7508H40.2162V45.113Z" fill="#3F3D56"/>
<path d="M69.3277 55.5892C69.3515 55.5892 69.3744 55.5796 69.3912 55.5626C69.4081 55.5457 69.4175 55.5226 69.4175 55.4986C69.4175 55.4746 69.4081 55.4516 69.3912 55.4346C69.3744 55.4176 69.3515 55.4081 69.3277 55.4081H68.4741V55.0458H69.3277C69.3515 55.0458 69.3744 55.0363 69.3912 55.0193C69.4081 55.0023 69.4175 54.9793 69.4175 54.9553C69.4175 54.9313 69.4081 54.9082 69.3912 54.8912C69.3744 54.8743 69.3515 54.8647 69.3277 54.8647H62.0496C62.0257 54.8647 62.0029 54.8743 61.986 54.8912C61.9692 54.9082 61.9597 54.9313 61.9597 54.9553C61.9597 54.9793 61.9692 55.0023 61.986 55.0193C62.0029 55.0363 62.0257 55.0458 62.0496 55.0458H62.9032V55.4081H62.0496C62.0257 55.4081 62.0029 55.4176 61.986 55.4346C61.9692 55.4516 61.9597 55.4746 61.9597 55.4986C61.9597 55.5226 61.9692 55.5457 61.986 55.5626C62.0029 55.5796 62.0257 55.5892 62.0496 55.5892H62.9032V55.9514H62.0496C62.0257 55.9514 62.0029 55.9609 61.986 55.9779C61.9692 55.9949 61.9597 56.0179 61.9597 56.042C61.9597 56.066 61.9692 56.089 61.986 56.106C62.0029 56.123 62.0257 56.1325 62.0496 56.1325H62.9032V56.4947H62.1394C62.0918 56.4947 62.0461 56.5138 62.0123 56.5478C61.9786 56.5818 61.9597 56.6278 61.9597 56.6759C61.9597 56.7239 61.9786 56.77 62.0123 56.8039C62.0461 56.8379 62.0918 56.857 62.1394 56.857H62.8665C62.8612 56.8715 62.8584 56.8868 62.8582 56.9022V58.1701C62.8582 58.1879 62.8616 58.2056 62.8684 58.2222C62.8751 58.2387 62.885 58.2537 62.8976 58.2664C62.9101 58.2791 62.925 58.2891 62.9413 58.296C62.9577 58.3028 62.9753 58.3064 62.993 58.3064C63.0108 58.3064 63.0283 58.3028 63.0447 58.296C63.0611 58.2891 63.076 58.2791 63.0885 58.2664C63.101 58.2537 63.1109 58.2387 63.1177 58.2222C63.1244 58.2056 63.1279 58.1879 63.1278 58.1701V56.9022C63.1276 56.8868 63.1249 56.8715 63.1196 56.857H68.2577C68.2524 56.8715 68.2496 56.8868 68.2494 56.9022V58.1701C68.2494 58.2061 68.2636 58.2406 68.2889 58.2661C68.3142 58.2916 68.3485 58.3059 68.3842 58.3059C68.4199 58.3059 68.4542 58.2916 68.4795 58.2661C68.5048 58.2406 68.519 58.2061 68.519 58.1701V56.9022C68.5188 56.8868 68.516 56.8715 68.5107 56.857H69.2378C69.2855 56.857 69.3312 56.8379 69.3649 56.8039C69.3986 56.77 69.4175 56.7239 69.4175 56.6759C69.4175 56.6278 69.3986 56.5818 69.3649 56.5478C69.3312 56.5138 69.2855 56.4947 69.2378 56.4947H68.4741V56.1325H69.3277C69.3515 56.1325 69.3743 56.123 69.3912 56.106C69.408 56.089 69.4175 56.066 69.4175 56.042C69.4175 56.0179 69.408 55.9949 69.3912 55.9779C69.3743 55.9609 69.3515 55.9514 69.3277 55.9514H68.4741V55.5892L69.3277 55.5892ZM63.0829 55.0458H68.2944V55.4081H63.0829V55.0458ZM68.2944 56.4947H63.0829V56.1325H68.2944V56.4947ZM68.2944 55.9514H63.0829V55.5892H68.2944V55.9514Z" fill="#3F3D56"/>
<path d="M91.9763 43.7061C92.0002 43.7061 92.023 43.6965 92.0399 43.6796C92.0567 43.6626 92.0662 43.6395 92.0662 43.6155C92.0662 43.5915 92.0567 43.5685 92.0399 43.5515C92.023 43.5345 92.0002 43.525 91.9763 43.525H91.1227V43.1627H91.9763C92.0002 43.1627 92.023 43.1532 92.0399 43.1362C92.0567 43.1192 92.0662 43.0962 92.0662 43.0722C92.0662 43.0482 92.0567 43.0251 92.0399 43.0082C92.023 42.9912 92.0002 42.9816 91.9763 42.9816H84.6983C84.6744 42.9816 84.6516 42.9912 84.6347 43.0082C84.6179 43.0251 84.6084 43.0482 84.6084 43.0722C84.6084 43.0962 84.6179 43.1192 84.6347 43.1362C84.6516 43.1532 84.6744 43.1627 84.6983 43.1627H85.5519V43.525H84.6983C84.6744 43.525 84.6516 43.5345 84.6347 43.5515C84.6179 43.5685 84.6084 43.5915 84.6084 43.6155C84.6084 43.6395 84.6179 43.6626 84.6347 43.6796C84.6516 43.6965 84.6744 43.7061 84.6983 43.7061H85.5519V44.0683H84.6983C84.6744 44.0683 84.6516 44.0779 84.6347 44.0948C84.6179 44.1118 84.6084 44.1349 84.6084 44.1589C84.6084 44.1829 84.6179 44.2059 84.6347 44.2229C84.6516 44.2399 84.6744 44.2494 84.6983 44.2494H85.5519V44.6117H84.7881C84.7405 44.6118 84.695 44.6309 84.6614 44.6649C84.6278 44.6988 84.6089 44.7448 84.6089 44.7928C84.6089 44.8407 84.6278 44.8867 84.6614 44.9207C84.695 44.9546 84.7405 44.9737 84.7881 44.9739H85.5152C85.5099 44.9884 85.5071 45.0037 85.5069 45.0192V46.287C85.5069 46.323 85.5211 46.3575 85.5464 46.383C85.5717 46.4085 85.606 46.4228 85.6417 46.4228C85.6775 46.4228 85.7117 46.4085 85.737 46.383C85.7623 46.3575 85.7765 46.323 85.7765 46.287V45.0192C85.7763 45.0037 85.7735 44.9884 85.7682 44.9739H90.9064C90.9011 44.9884 90.8983 45.0037 90.8981 45.0192V46.287C90.8981 46.323 90.9123 46.3575 90.9376 46.383C90.9629 46.4085 90.9971 46.4228 91.0329 46.4228C91.0686 46.4228 91.1029 46.4085 91.1282 46.383C91.1535 46.3575 91.1677 46.323 91.1677 46.287V45.0192C91.1675 45.0037 91.1647 44.9884 91.1594 44.9739H91.8865C91.9101 44.974 91.9336 44.9693 91.9554 44.9603C91.9773 44.9512 91.9972 44.9379 92.0139 44.921C92.0307 44.9042 92.0439 44.8842 92.053 44.8622C92.0621 44.8402 92.0667 44.8166 92.0667 44.7928C92.0667 44.7689 92.0621 44.7454 92.053 44.7233C92.0439 44.7013 92.0307 44.6813 92.0139 44.6645C91.9972 44.6477 91.9773 44.6344 91.9554 44.6253C91.9336 44.6162 91.9101 44.6116 91.8865 44.6117H91.1227V44.2494H91.9763C92.0002 44.2494 92.023 44.2399 92.0399 44.2229C92.0567 44.2059 92.0662 44.1829 92.0662 44.1589C92.0662 44.1349 92.0567 44.1118 92.0399 44.0948C92.023 44.0779 92.0002 44.0683 91.9763 44.0683H91.1227V43.7061H91.9763ZM85.7316 43.1627H90.943V43.525H85.7316V43.1627ZM90.943 44.6117H85.7316V44.2494H90.943V44.6117ZM90.943 44.0683H85.7316V43.7061H90.943V44.0683Z" fill="#3F3D56"/>
<path d="M57.8659 66.4757C57.8659 64.1533 55.9966 58.6424 53.6907 58.6424C51.3848 58.6424 49.5155 64.1533 49.5155 66.4757C49.5162 67.5913 49.9564 68.6609 50.7393 69.4495C51.5222 70.2381 52.5838 70.6811 53.6907 70.6811C54.7976 70.6811 55.8592 70.2381 56.6421 69.4495C57.4251 68.6609 57.8652 67.5913 57.8659 66.4757Z" fill="#F2F2F2"/>
<path d="M53.6907 75.7938C53.678 75.7938 53.6659 75.7887 53.6569 75.7797C53.648 75.7707 53.6429 75.7584 53.6429 75.7457V65.9226C53.6429 65.9163 53.6441 65.91 53.6465 65.9041C53.6489 65.8982 53.6524 65.8929 53.6568 65.8884C53.6613 65.8839 53.6665 65.8803 53.6723 65.8779C53.6782 65.8755 53.6844 65.8742 53.6907 65.8742C53.697 65.8742 53.7032 65.8755 53.709 65.8779C53.7148 65.8803 53.7201 65.8839 53.7245 65.8884C53.729 65.8929 53.7325 65.8982 53.7349 65.9041C53.7373 65.91 53.7385 65.9163 53.7384 65.9226V75.7457C53.7384 75.7584 53.7334 75.7707 53.7244 75.7797C53.7155 75.7887 53.7033 75.7938 53.6907 75.7938Z" fill="#CCCCCC"/>
<path d="M53.6907 67.7579C53.6838 67.7579 53.6771 67.7564 53.6708 67.7535C53.6646 67.7507 53.6591 67.7465 53.6546 67.7413L51.2533 64.9504C51.2451 64.9407 51.241 64.9282 51.242 64.9155C51.2429 64.9028 51.2488 64.891 51.2583 64.8827C51.2678 64.8743 51.2802 64.8702 51.2928 64.871C51.3054 64.8719 51.3172 64.8777 51.3255 64.8873L53.7267 67.6782C53.7327 67.6852 53.7366 67.6937 53.7379 67.7029C53.7392 67.712 53.7379 67.7213 53.7341 67.7297C53.7303 67.7381 53.7242 67.7452 53.7165 67.7502C53.7088 67.7552 53.6998 67.7579 53.6907 67.7579Z" fill="#CCCCCC"/>
<path d="M53.6907 69.3685C53.6812 69.3685 53.672 69.3657 53.6642 69.3604C53.6563 69.3551 53.6502 69.3476 53.6466 69.3388C53.643 69.3301 53.642 69.3204 53.6439 69.311C53.6457 69.3017 53.6503 69.2931 53.6569 69.2864L55.0214 67.9113C55.0303 67.9022 55.0425 67.8972 55.0551 67.8972C55.0678 67.8972 55.0799 67.9023 55.0888 67.9113C55.0978 67.9203 55.1028 67.9325 55.1028 67.9453C55.1028 67.958 55.0978 67.9703 55.0889 67.9793L53.7244 69.3544C53.72 69.3589 53.7148 69.3625 53.709 69.3649C53.7032 69.3673 53.697 69.3685 53.6907 69.3685Z" fill="#CCCCCC"/>
<path d="M18.0432 20.9021C18.0432 18.5797 16.1739 13.0688 13.868 13.0688C11.5621 13.0688 9.69275 18.5797 9.69275 20.9021C9.69343 22.0177 10.1336 23.0873 10.9165 23.8759C11.6995 24.6645 12.7611 25.1075 13.868 25.1075C14.9749 25.1075 16.0364 24.6645 16.8194 23.8759C17.6023 23.0873 18.0425 22.0177 18.0432 20.9021Z" fill="#3F3D56"/>
<path d="M13.8679 30.2202C13.8553 30.2202 13.8431 30.2151 13.8342 30.2061C13.8252 30.1971 13.8202 30.1849 13.8202 30.1721V20.349C13.8203 20.3363 13.8253 20.3241 13.8343 20.3152C13.8432 20.3062 13.8553 20.3012 13.8679 20.3012C13.8806 20.3012 13.8927 20.3062 13.9016 20.3152C13.9105 20.3241 13.9156 20.3363 13.9157 20.349V30.1721C13.9157 30.1784 13.9144 30.1847 13.912 30.1905C13.9096 30.1963 13.9061 30.2016 13.9017 30.2061C13.8973 30.2106 13.892 30.2141 13.8862 30.2165C13.8804 30.219 13.8742 30.2202 13.8679 30.2202Z" fill="#CCCCCC"/>
<path d="M13.8679 22.1843C13.861 22.1843 13.8543 22.1829 13.848 22.18C13.8418 22.1771 13.8363 22.173 13.8318 22.1677L11.4305 19.3768C11.4223 19.3672 11.4182 19.3546 11.4191 19.3419C11.42 19.3292 11.4259 19.3174 11.4354 19.309C11.445 19.3007 11.4574 19.2965 11.47 19.2974C11.4826 19.2983 11.4944 19.3042 11.5027 19.3138L13.9039 22.1047C13.9099 22.1116 13.9138 22.1202 13.9151 22.1293C13.9164 22.1385 13.9151 22.1478 13.9113 22.1562C13.9075 22.1646 13.9014 22.1717 13.8937 22.1767C13.886 22.1817 13.877 22.1843 13.8679 22.1843V22.1843Z" fill="#CCCCCC"/>
<path d="M13.8679 23.795C13.8585 23.795 13.8493 23.7922 13.8414 23.7869C13.8336 23.7816 13.8274 23.7741 13.8238 23.7653C13.8202 23.7565 13.8193 23.7468 13.8211 23.7375C13.8229 23.7282 13.8275 23.7196 13.8342 23.7129L15.1986 22.3377C15.203 22.3332 15.2083 22.3297 15.2141 22.3273C15.2199 22.3248 15.2261 22.3236 15.2324 22.3236C15.2386 22.3236 15.2448 22.3248 15.2506 22.3273C15.2564 22.3297 15.2617 22.3332 15.2661 22.3377C15.2706 22.3422 15.2741 22.3475 15.2765 22.3533C15.2789 22.3591 15.2801 22.3654 15.2801 22.3717C15.2801 22.378 15.2789 22.3843 15.2765 22.3901C15.2741 22.396 15.2706 22.4013 15.2661 22.4057L13.9017 23.7809C13.8973 23.7854 13.892 23.7889 13.8862 23.7913C13.8804 23.7938 13.8742 23.795 13.8679 23.795Z" fill="#CCCCCC"/>
<path d="M9.3457 30.1565C9.3457 29.6905 9.52935 29.2437 9.85623 28.9143C10.1831 28.5848 10.6265 28.3997 11.0887 28.3997C11.551 28.3997 11.9944 28.5848 12.3213 28.9143C12.6482 29.2437 12.8318 29.6905 12.8318 30.1565" fill="#F2F2F2"/>
<path d="M11.0889 30.1564C11.0764 30.1564 11.0644 30.1514 11.0555 30.1425C11.0467 30.1336 11.0417 30.1216 11.0417 30.109V29.1831C11.0417 29.1705 11.0467 29.1585 11.0555 29.1496C11.0644 29.1407 11.0764 29.1357 11.0889 29.1357C11.1014 29.1357 11.1133 29.1407 11.1222 29.1496C11.131 29.1585 11.136 29.1705 11.136 29.1831V30.109C11.136 30.1216 11.131 30.1336 11.1222 30.1425C11.1133 30.1514 11.1014 30.1564 11.0889 30.1564Z" fill="#CCCCCC"/>
<path d="M11.0888 29.8383C11.0776 29.8383 11.0667 29.8343 11.0582 29.8269L10.4929 29.3379C10.4882 29.3338 10.4843 29.3288 10.4815 29.3233C10.4787 29.3177 10.477 29.3117 10.4766 29.3055C10.4761 29.2992 10.4769 29.293 10.4788 29.2871C10.4807 29.2811 10.4838 29.2756 10.4878 29.2709C10.4918 29.2662 10.4967 29.2623 10.5023 29.2595C10.5078 29.2567 10.5138 29.255 10.52 29.2545C10.5261 29.254 10.5323 29.2548 10.5382 29.2567C10.5441 29.2587 10.5495 29.2618 10.5542 29.2658L11.1195 29.7548C11.1268 29.7611 11.1321 29.7695 11.1345 29.7789C11.1369 29.7883 11.1364 29.7982 11.133 29.8073C11.1297 29.8164 11.1237 29.8243 11.1158 29.8298C11.1079 29.8354 11.0985 29.8383 11.0888 29.8383H11.0888Z" fill="#CCCCCC"/>
<path d="M14.7162 30.1565C14.7162 29.6905 14.8998 29.2437 15.2267 28.9143C15.5536 28.5848 15.9969 28.3997 16.4592 28.3997C16.9215 28.3997 17.3649 28.5848 17.6917 28.9143C18.0186 29.2437 18.2023 29.6905 18.2023 30.1565" fill="#F2F2F2"/>
<path d="M16.4592 30.1564C16.4467 30.1564 16.4347 30.1514 16.4259 30.1425C16.4171 30.1336 16.4121 30.1216 16.4121 30.109V29.1831C16.4121 29.1705 16.4171 29.1585 16.4259 29.1496C16.4347 29.1407 16.4467 29.1357 16.4592 29.1357C16.4717 29.1357 16.4837 29.1407 16.4925 29.1496C16.5014 29.1585 16.5063 29.1705 16.5063 29.1831V30.109C16.5063 30.1216 16.5014 30.1336 16.4925 30.1425C16.4837 30.1514 16.4717 30.1564 16.4592 30.1564Z" fill="#CCCCCC"/>
<path d="M16.4593 29.8383C16.448 29.8383 16.4371 29.8343 16.4286 29.8269L15.8633 29.3379C15.8539 29.3296 15.8481 29.318 15.8472 29.3055C15.8463 29.293 15.8503 29.2806 15.8584 29.2711C15.8665 29.2615 15.878 29.2556 15.8905 29.2547C15.9029 29.2537 15.9152 29.2577 15.9247 29.2658L16.49 29.7548C16.4973 29.7611 16.5025 29.7695 16.5049 29.7789C16.5073 29.7883 16.5068 29.7982 16.5035 29.8073C16.5001 29.8164 16.4941 29.8243 16.4862 29.8298C16.4783 29.8353 16.4689 29.8383 16.4593 29.8383V29.8383Z" fill="#CCCCCC"/>
<path d="M105.761 66.3451C105.761 64.0227 103.891 58.5118 101.585 58.5118C99.2795 58.5118 97.4102 64.0227 97.4102 66.3451C97.4108 67.4607 97.851 68.5303 98.6339 69.3189C99.4169 70.1075 100.478 70.5505 101.585 70.5505C102.692 70.5505 103.754 70.1075 104.537 69.3189C105.32 68.5303 105.76 67.4607 105.761 66.3451Z" fill="#6C63FF"/>
<path d="M101.585 75.6632C101.573 75.6632 101.561 75.6581 101.552 75.6491C101.543 75.6401 101.538 75.6278 101.538 75.6151V65.792C101.538 65.7857 101.539 65.7794 101.541 65.7735C101.544 65.7676 101.547 65.7623 101.551 65.7578C101.556 65.7533 101.561 65.7497 101.567 65.7473C101.573 65.7449 101.579 65.7436 101.585 65.7436C101.592 65.7436 101.598 65.7449 101.604 65.7473C101.609 65.7497 101.615 65.7533 101.619 65.7578C101.624 65.7623 101.627 65.7676 101.63 65.7735C101.632 65.7794 101.633 65.7857 101.633 65.792V75.6151C101.633 75.6278 101.628 75.6401 101.619 75.6491C101.61 75.6581 101.598 75.6632 101.585 75.6632Z" fill="#CCCCCC"/>
<path d="M101.585 67.6273C101.578 67.6273 101.572 67.6259 101.565 67.623C101.559 67.6201 101.554 67.6159 101.549 67.6107L99.148 64.8198C99.1398 64.8102 99.1357 64.7976 99.1366 64.7849C99.1375 64.7723 99.1434 64.7605 99.1529 64.7521C99.1625 64.7438 99.1749 64.7396 99.1875 64.7405C99.2001 64.7413 99.2118 64.7472 99.2201 64.7568L101.621 67.5477C101.627 67.5546 101.631 67.5632 101.633 67.5723C101.634 67.5815 101.633 67.5908 101.629 67.5992C101.625 67.6076 101.619 67.6147 101.611 67.6197C101.603 67.6246 101.594 67.6273 101.585 67.6273V67.6273Z" fill="#CCCCCC"/>
<path d="M101.585 69.238C101.576 69.238 101.567 69.2351 101.559 69.2298C101.551 69.2246 101.545 69.217 101.541 69.2083C101.538 69.1995 101.537 69.1898 101.539 69.1805C101.54 69.1711 101.545 69.1625 101.552 69.1558L102.916 67.7807C102.92 67.7762 102.926 67.7727 102.931 67.7702C102.937 67.7678 102.944 67.7666 102.95 67.7666C102.956 67.7666 102.962 67.7678 102.968 67.7702C102.974 67.7727 102.979 67.7762 102.984 67.7807C102.988 67.7851 102.991 67.7904 102.994 67.7963C102.996 67.8021 102.998 67.8084 102.998 67.8147C102.998 67.821 102.996 67.8273 102.994 67.8331C102.991 67.8389 102.988 67.8442 102.984 67.8487L101.619 69.2239C101.615 69.2283 101.609 69.2319 101.604 69.2343C101.598 69.2367 101.592 69.238 101.585 69.238Z" fill="#CCCCCC"/>
<path d="M40.2209 67.0814H39.4118C39.3514 67.0814 39.2936 67.0572 39.2509 67.0142C39.2083 66.9712 39.1843 66.9129 39.1842 66.8521V65.7817C39.1843 65.7209 39.2083 65.6626 39.2509 65.6196C39.2936 65.5766 39.3514 65.5524 39.4118 65.5524H40.2209C40.2813 65.5524 40.3391 65.5766 40.3818 65.6196C40.4244 65.6626 40.4484 65.7209 40.4485 65.7817V66.8521C40.4484 66.9129 40.4244 66.9712 40.3818 67.0142C40.3391 67.0572 40.2813 67.0814 40.2209 67.0814Z" fill="#3F3D56"/>
<path d="M47.0482 75.797H42.9013C42.7873 75.7969 42.6781 75.7512 42.5975 75.6699C42.5169 75.5887 42.4716 75.4786 42.4714 75.3638V67.2598C42.4716 67.1449 42.5169 67.0348 42.5975 66.9536C42.6781 66.8724 42.7873 66.8267 42.9013 66.8266H47.0482C47.1622 66.8267 47.2714 66.8724 47.352 66.9536C47.4326 67.0348 47.4779 67.1449 47.4781 67.2598V75.3638C47.4779 75.4786 47.4326 75.5887 47.352 75.6699C47.2714 75.7512 47.1622 75.7969 47.0482 75.797Z" fill="#3F3D56"/>
<path d="M44.5702 75.797H37.389C37.275 75.7969 37.1657 75.7512 37.0852 75.6699C37.0046 75.5887 36.9592 75.4786 36.9591 75.3638V67.2598C36.9592 67.1449 37.0046 67.0348 37.0852 66.9536C37.1657 66.8724 37.275 66.8267 37.389 66.8266H44.5702C44.6841 66.8267 44.7934 66.8724 44.874 66.9536C44.9546 67.0348 44.9999 67.1449 45 67.2598V75.3638C44.9999 75.4786 44.9546 75.5887 44.874 75.6699C44.7934 75.7512 44.6841 75.7969 44.5702 75.797Z" fill="#6C63FF"/>
<path d="M39.4624 67.0814H38.6532C38.5929 67.0814 38.5351 67.0572 38.4924 67.0142C38.4497 66.9712 38.4257 66.9129 38.4257 66.8521V65.7817C38.4257 65.7209 38.4497 65.6626 38.4924 65.6196C38.5351 65.5766 38.5929 65.5524 38.6532 65.5524H39.4624C39.5227 65.5524 39.5806 65.5766 39.6232 65.6196C39.6659 65.6626 39.6899 65.7209 39.69 65.7817V66.8521C39.6899 66.9129 39.6659 66.9712 39.6232 67.0142C39.5806 67.0572 39.5227 67.0814 39.4624 67.0814Z" fill="#6C63FF"/>
<path d="M40.5244 70.8276H39.5636C39.53 70.8276 39.4979 70.8141 39.4742 70.7902C39.4505 70.7663 39.4372 70.734 39.4371 70.7002V69.2221C39.4372 69.1883 39.4505 69.1559 39.4742 69.132C39.4979 69.1081 39.53 69.0947 39.5636 69.0947H40.5244C40.5579 69.0947 40.5901 69.1081 40.6138 69.132C40.6375 69.1559 40.6508 69.1883 40.6509 69.2221V70.7002C40.6508 70.734 40.6375 70.7663 40.6138 70.7902C40.5901 70.8141 40.5579 70.8276 40.5244 70.8276Z" fill="white"/>
<path d="M42.3955 70.8276H41.4347C41.4011 70.8276 41.369 70.8141 41.3453 70.7902C41.3216 70.7663 41.3083 70.734 41.3082 70.7002V69.2221C41.3083 69.1883 41.3216 69.1559 41.3453 69.132C41.369 69.1081 41.4011 69.0947 41.4347 69.0947H42.3955C42.429 69.0947 42.4612 69.1081 42.4849 69.132C42.5086 69.1559 42.5219 69.1883 42.522 69.2221V70.7002C42.5219 70.734 42.5086 70.7663 42.4849 70.7902C42.4612 70.8141 42.429 70.8276 42.3955 70.8276Z" fill="white"/>
<path d="M40.5244 73.5289H39.5636C39.53 73.5288 39.4979 73.5154 39.4742 73.4915C39.4505 73.4676 39.4372 73.4352 39.4371 73.4015V71.9234C39.4372 71.8896 39.4505 71.8572 39.4742 71.8333C39.4979 71.8094 39.53 71.796 39.5636 71.796H40.5244C40.5579 71.796 40.5901 71.8094 40.6138 71.8333C40.6375 71.8572 40.6508 71.8896 40.6509 71.9234V73.4015C40.6508 73.4352 40.6375 73.4676 40.6138 73.4915C40.5901 73.5154 40.5579 73.5288 40.5244 73.5289Z" fill="white"/>
<path d="M42.3955 73.5289H41.4347C41.4011 73.5288 41.369 73.5154 41.3453 73.4915C41.3216 73.4676 41.3083 73.4352 41.3082 73.4015V71.9234C41.3083 71.8896 41.3216 71.8572 41.3453 71.8333C41.369 71.8094 41.4011 71.796 41.4347 71.796H42.3955C42.429 71.796 42.4612 71.8094 42.4849 71.8333C42.5086 71.8572 42.5219 71.8896 42.522 71.9234V73.4015C42.5219 73.4352 42.5086 73.4676 42.4849 73.4915C42.4612 73.5154 42.429 73.5288 42.3955 73.5289Z" fill="white"/>
<path d="M11.4374 41.6787H10.483C10.4118 41.6786 10.3436 41.6501 10.2933 41.5993C10.243 41.5486 10.2147 41.4799 10.2146 41.4081V39.1839C10.2147 39.1122 10.243 39.0434 10.2933 38.9927C10.3436 38.942 10.4119 38.9134 10.483 38.9134H11.4374C11.5085 38.9134 11.5768 38.942 11.6271 38.9927C11.6774 39.0434 11.7057 39.1122 11.7058 39.1839V41.4081C11.7057 41.4799 11.6774 41.5486 11.6271 41.5993C11.5768 41.6501 11.5085 41.6786 11.4374 41.6787Z" fill="#3F3D56"/>
<path d="M15.1951 62.4184H10.304C10.1696 62.4182 10.0407 62.3643 9.94567 62.2685C9.85062 62.1727 9.79715 62.0429 9.797 61.9074V42.0093C9.79715 41.8738 9.85062 41.7439 9.94567 41.6482C10.0407 41.5524 10.1696 41.4985 10.304 41.4983H15.1951C15.3295 41.4985 15.4584 41.5524 15.5534 41.6482C15.6485 41.7439 15.702 41.8738 15.7021 42.0093V61.9074C15.702 62.0429 15.6485 62.1727 15.5534 62.2685C15.4584 62.3643 15.3295 62.4182 15.1951 62.4184Z" fill="#3F3D56"/>
<path d="M12.2724 62.4184H7.38127C7.24685 62.4182 7.11798 62.3643 7.02293 62.2685C6.92788 62.1727 6.87442 62.0429 6.87427 61.9074V42.0093C6.87442 41.8738 6.92788 41.7439 7.02293 41.6482C7.11798 41.5524 7.24685 41.4985 7.38127 41.4983H12.2724C12.4068 41.4985 12.5357 41.5524 12.6307 41.6482C12.7258 41.7439 12.7792 41.8738 12.7794 42.0093V61.9074C12.7792 62.0429 12.7258 62.1727 12.6307 62.2685C12.5357 62.3643 12.4068 62.4182 12.2724 62.4184Z" fill="#6C63FF"/>
<path d="M10.5426 41.6787H9.58824C9.51707 41.6786 9.44885 41.6501 9.39853 41.5993C9.34821 41.5486 9.3199 41.4799 9.31982 41.4081V39.1839C9.3199 39.1122 9.34821 39.0434 9.39853 38.9927C9.44885 38.942 9.51707 38.9134 9.58824 38.9134H10.5426C10.6138 38.9134 10.682 38.942 10.7323 38.9927C10.7826 39.0434 10.8109 39.1122 10.811 39.1839V41.4081C10.8109 41.4799 10.7826 41.5486 10.7323 41.5993C10.682 41.6501 10.6138 41.6786 10.5426 41.6787Z" fill="#6C63FF"/>
<path d="M9.28999 46.007H8.15669C8.11715 46.0069 8.07925 45.9911 8.05129 45.9629C8.02334 45.9347 8.00761 45.8965 8.00757 45.8567V44.1133C8.00761 44.0735 8.02334 44.0353 8.05129 44.0071C8.07925 43.9789 8.11715 43.9631 8.15669 43.963H9.28999C9.32953 43.9631 9.36743 43.9789 9.39539 44.0071C9.42334 44.0353 9.43906 44.0735 9.43911 44.1133V45.8567C9.43906 45.8965 9.42334 45.9347 9.39539 45.9629C9.36743 45.9911 9.32953 46.0069 9.28999 46.007Z" fill="white"/>
<path d="M11.497 46.007H10.3637C10.3242 46.0069 10.2863 45.9911 10.2583 45.9629C10.2304 45.9347 10.2146 45.8965 10.2146 45.8567V44.1133C10.2146 44.0735 10.2304 44.0353 10.2583 44.0071C10.2863 43.9789 10.3242 43.9631 10.3637 43.963H11.497C11.5366 43.9631 11.5745 43.9789 11.6024 44.0071C11.6304 44.0353 11.6461 44.0735 11.6461 44.1133V45.8567C11.6461 45.8965 11.6304 45.9347 11.6024 45.9629C11.5745 45.9911 11.5366 46.0069 11.497 46.007Z" fill="white"/>
<path d="M9.28999 49.193H8.15669C8.11715 49.193 8.07925 49.1772 8.05129 49.149C8.02334 49.1208 8.00761 49.0826 8.00757 49.0428V47.2994C8.00761 47.2596 8.02334 47.2214 8.05129 47.1932C8.07925 47.165 8.11715 47.1492 8.15669 47.1491H9.28999C9.32953 47.1492 9.36743 47.165 9.39539 47.1932C9.42334 47.2214 9.43906 47.2596 9.43911 47.2994V49.0428C9.43906 49.0826 9.42334 49.1208 9.39539 49.149C9.36743 49.1772 9.32953 49.193 9.28999 49.193Z" fill="white"/>
<path d="M11.497 49.193H10.3637C10.3242 49.193 10.2863 49.1772 10.2583 49.149C10.2304 49.1208 10.2146 49.0826 10.2146 49.0428V47.2994C10.2146 47.2596 10.2304 47.2214 10.2583 47.1932C10.2863 47.165 10.3242 47.1492 10.3637 47.1491H11.497C11.5366 47.1492 11.5745 47.165 11.6024 47.1932C11.6304 47.2214 11.6461 47.2596 11.6461 47.2994V49.0428C11.6461 49.0826 11.6304 49.1208 11.6024 49.149C11.5745 49.1772 11.5366 49.193 11.497 49.193Z" fill="white"/>
<path d="M9.28999 52.3791H8.15669C8.11715 52.3791 8.07925 52.3633 8.05129 52.3351C8.02334 52.3069 8.00761 52.2687 8.00757 52.2289V50.4855C8.00761 50.4457 8.02334 50.4075 8.05129 50.3793C8.07925 50.3511 8.11715 50.3353 8.15669 50.3352H9.28999C9.32953 50.3353 9.36743 50.3511 9.39539 50.3793C9.42334 50.4075 9.43906 50.4457 9.43911 50.4855V52.2289C9.43906 52.2687 9.42334 52.3069 9.39539 52.3351C9.36743 52.3633 9.32953 52.3791 9.28999 52.3791Z" fill="white"/>
<path d="M11.497 52.3791H10.3637C10.3242 52.3791 10.2863 52.3633 10.2583 52.3351C10.2304 52.3069 10.2146 52.2687 10.2146 52.2289V50.4855C10.2146 50.4457 10.2304 50.4075 10.2583 50.3793C10.2863 50.3511 10.3242 50.3353 10.3637 50.3352H11.497C11.5366 50.3353 11.5745 50.3511 11.6024 50.3793C11.6304 50.4075 11.6461 50.4457 11.6461 50.4855V52.2289C11.6461 52.2687 11.6304 52.3069 11.6024 52.3351C11.5745 52.3633 11.5366 52.3791 11.497 52.3791Z" fill="white"/>
<path d="M9.28999 55.5652H8.15669C8.11715 55.5652 8.07925 55.5494 8.05129 55.5212C8.02334 55.493 8.00761 55.4548 8.00757 55.415V53.6716C8.00761 53.6318 8.02334 53.5936 8.05129 53.5654C8.07925 53.5372 8.11715 53.5214 8.15669 53.5213H9.28999C9.32953 53.5214 9.36743 53.5372 9.39539 53.5654C9.42334 53.5936 9.43906 53.6318 9.43911 53.6716V55.415C9.43906 55.4548 9.42334 55.493 9.39539 55.5212C9.36743 55.5494 9.32953 55.5652 9.28999 55.5652Z" fill="white"/>
<path d="M11.497 55.5652H10.3637C10.3242 55.5652 10.2863 55.5494 10.2583 55.5212C10.2304 55.493 10.2146 55.4548 10.2146 55.415V53.6716C10.2146 53.6318 10.2304 53.5936 10.2583 53.5654C10.2863 53.5372 10.3242 53.5214 10.3637 53.5213H11.497C11.5366 53.5214 11.5745 53.5372 11.6024 53.5654C11.6304 53.5936 11.6461 53.6318 11.6461 53.6716V55.415C11.6461 55.4548 11.6304 55.493 11.6024 55.5212C11.5745 55.5494 11.5366 55.5652 11.497 55.5652Z" fill="white"/>
<path d="M9.28999 58.7513H8.15669C8.11715 58.7513 8.07925 58.7354 8.05129 58.7073C8.02334 58.6791 8.00761 58.6409 8.00757 58.601V56.8577C8.00761 56.8179 8.02334 56.7797 8.05129 56.7515C8.07925 56.7233 8.11715 56.7075 8.15669 56.7074H9.28999C9.32953 56.7075 9.36743 56.7233 9.39539 56.7515C9.42334 56.7797 9.43906 56.8179 9.43911 56.8577V58.601C9.43906 58.6409 9.42334 58.6791 9.39539 58.7073C9.36743 58.7354 9.32953 58.7513 9.28999 58.7513Z" fill="white"/>
<path d="M11.497 58.7513H10.3637C10.3242 58.7513 10.2863 58.7354 10.2583 58.7073C10.2304 58.6791 10.2146 58.6409 10.2146 58.601V56.8577C10.2146 56.8179 10.2304 56.7797 10.2583 56.7515C10.2863 56.7233 10.3242 56.7075 10.3637 56.7074H11.497C11.5366 56.7075 11.5745 56.7233 11.6024 56.7515C11.6304 56.7797 11.6461 56.8179 11.6461 56.8577V58.601C11.6461 58.6409 11.6304 58.6791 11.6024 58.7073C11.5745 58.7354 11.5366 58.7513 11.497 58.7513Z" fill="white"/>
<path d="M87.3443 67.1088H86.5352C86.4749 67.1087 86.417 67.0845 86.3743 67.0415C86.3317 66.9985 86.3077 66.9402 86.3076 66.8794V65.8091C86.3077 65.7483 86.3317 65.69 86.3743 65.647C86.417 65.604 86.4749 65.5798 86.5352 65.5797H87.3443C87.4047 65.5798 87.4625 65.604 87.5052 65.647C87.5479 65.69 87.5719 65.7483 87.5719 65.8091V66.8794C87.5719 66.9402 87.5479 66.9985 87.5052 67.0415C87.4625 67.0845 87.4047 67.1087 87.3443 67.1088Z" fill="#3F3D56"/>
<path d="M94.1715 75.8243H90.0246C89.9106 75.8242 89.8014 75.7785 89.7208 75.6973C89.6402 75.6161 89.5949 75.506 89.5947 75.3911V67.2872C89.5949 67.1723 89.6402 67.0622 89.7208 66.9809C89.8014 66.8997 89.9106 66.854 90.0246 66.8539H94.1715C94.2855 66.854 94.3947 66.8997 94.4753 66.9809C94.5559 67.0622 94.6012 67.1723 94.6014 67.2872V75.3911C94.6012 75.506 94.5559 75.6161 94.4753 75.6973C94.3947 75.7785 94.2855 75.8242 94.1715 75.8243Z" fill="#3F3D56"/>
<path d="M91.6935 75.8243H84.5123C84.3983 75.8242 84.289 75.7785 84.2084 75.6973C84.1279 75.6161 84.0825 75.506 84.0824 75.3911V67.2872C84.0825 67.1723 84.1279 67.0622 84.2084 66.9809C84.289 66.8997 84.3983 66.854 84.5123 66.8539H91.6935C91.8074 66.854 91.9167 66.8997 91.9973 66.9809C92.0779 67.0622 92.1232 67.1723 92.1233 67.2872V75.3911C92.1232 75.506 92.0779 75.6161 91.9973 75.6973C91.9167 75.7785 91.8074 75.8242 91.6935 75.8243Z" fill="#6C63FF"/>
<path d="M86.5858 67.1088H85.7766C85.7163 67.1087 85.6585 67.0845 85.6158 67.0415C85.5731 66.9985 85.5491 66.9402 85.5491 66.8794V65.8091C85.5491 65.7483 85.5731 65.69 85.6158 65.647C85.6585 65.604 85.7163 65.5798 85.7766 65.5797H86.5858C86.6461 65.5798 86.704 65.604 86.7466 65.647C86.7893 65.69 86.8133 65.7483 86.8134 65.8091V66.8794C86.8133 66.9402 86.7893 66.9985 86.7466 67.0415C86.704 67.0845 86.6461 67.1087 86.5858 67.1088Z" fill="#6C63FF"/>
<path d="M87.6477 70.8549H86.6869C86.6533 70.8549 86.6212 70.8415 86.5975 70.8176C86.5738 70.7937 86.5605 70.7613 86.5604 70.7275V69.2494C86.5605 69.2156 86.5738 69.1833 86.5975 69.1594C86.6212 69.1355 86.6533 69.122 86.6869 69.122H87.6477C87.6812 69.122 87.7134 69.1355 87.7371 69.1594C87.7608 69.1833 87.7741 69.2156 87.7742 69.2494V70.7275C87.7741 70.7613 87.7608 70.7937 87.7371 70.8176C87.7134 70.8415 87.6812 70.8549 87.6477 70.8549Z" fill="white"/>
<path d="M89.5189 70.8549H88.5581C88.5246 70.8549 88.4924 70.8415 88.4687 70.8176C88.445 70.7937 88.4317 70.7613 88.4316 70.7275V69.2494C88.4317 69.2156 88.445 69.1833 88.4687 69.1594C88.4924 69.1355 88.5246 69.122 88.5581 69.122H89.5189C89.5525 69.122 89.5846 69.1355 89.6083 69.1594C89.632 69.1833 89.6453 69.2156 89.6454 69.2494V70.7275C89.6453 70.7613 89.632 70.7937 89.6083 70.8176C89.5846 70.8415 89.5525 70.8549 89.5189 70.8549Z" fill="white"/>
<path d="M87.6477 73.5562H86.6869C86.6533 73.5562 86.6212 73.5428 86.5975 73.5189C86.5738 73.495 86.5605 73.4626 86.5604 73.4288V71.9508C86.5605 71.917 86.5738 71.8846 86.5975 71.8607C86.6212 71.8368 86.6533 71.8234 86.6869 71.8233H87.6477C87.6812 71.8234 87.7134 71.8368 87.7371 71.8607C87.7608 71.8846 87.7741 71.917 87.7742 71.9508V73.4288C87.7741 73.4626 87.7608 73.495 87.7371 73.5189C87.7134 73.5428 87.6812 73.5562 87.6477 73.5562Z" fill="white"/>
<path d="M89.5189 73.5562H88.5581C88.5246 73.5562 88.4924 73.5428 88.4687 73.5189C88.445 73.495 88.4317 73.4626 88.4316 73.4288V71.9508C88.4317 71.917 88.445 71.8846 88.4687 71.8607C88.4924 71.8368 88.5246 71.8234 88.5581 71.8233H89.5189C89.5525 71.8234 89.5846 71.8368 89.6083 71.8607C89.632 71.8846 89.6453 71.917 89.6454 71.9508V73.4288C89.6453 73.4626 89.632 73.495 89.6083 73.5189C89.5846 73.5428 89.5525 73.5562 89.5189 73.5562Z" fill="white"/>
</g>
<defs>
<clipPath id="clip0_32_634">
<rect width="113" height="92" fill="white"/>
</clipPath>
</defs>
</svg>
