<svg width="116" height="96" viewBox="0 0 116 96" fill="none" xmlns="http://www.w3.org/2000/svg">
<path d="M104.244 14.6466L93.6879 14.7494C93.1918 12.3066 91.5246 5.89721 93.026 4.14898C93.0945 3.49099 93.414 2.88475 93.9182 2.45645C94.4224 2.02816 95.0723 1.81081 95.7327 1.84966C97.3689 -0.71153 100.094 -0.326984 101.936 1.27259C103.79 1.91224 104.489 3.04861 104.244 4.59072C105.617 5.79243 105.871 7.25447 105.254 8.91872L104.244 14.6466Z" fill="#2F2E41"/>
<path d="M103.228 21.1496L95.612 20.0951L94.0887 17.8688C96.187 16.4769 96.9295 14.5329 95.9635 11.893L101.236 11.7758C100.989 14.1267 101.767 15.9469 103.931 17.0486L103.228 21.1496Z" fill="#FFB9B9"/>
<path d="M93.8113 89.8458L93.5201 93.8271C93.5069 94.0073 93.5324 94.1883 93.5949 94.3578C93.6574 94.5274 93.7554 94.6816 93.8824 94.8101C94.0093 94.9387 94.1623 95.0386 94.3311 95.1032C94.4998 95.1678 94.6804 95.1956 94.8608 95.1847L96.9058 95.0608C97.0005 95.055 97.0928 95.0285 97.1762 94.983C97.2595 94.9376 97.3318 94.8743 97.3879 94.7977C97.444 94.7212 97.4826 94.6332 97.5009 94.54C97.5192 94.4469 97.5167 94.3509 97.4937 94.2588L96.3586 89.7184L93.8113 89.8458Z" fill="#E6E6E6"/>
<path d="M100.432 89.7184L99.2966 94.2588C99.2736 94.3509 99.2712 94.4469 99.2895 94.54C99.3077 94.6332 99.3463 94.7212 99.4024 94.7977C99.4586 94.8743 99.5309 94.9376 99.6142 94.983C99.6975 95.0285 99.7898 95.055 99.8846 95.0608L101.93 95.1846C102.11 95.1956 102.291 95.1678 102.459 95.1032C102.628 95.0386 102.781 94.9387 102.908 94.8101C103.035 94.6816 103.133 94.5273 103.195 94.3578C103.258 94.1883 103.283 94.0073 103.27 93.8271L102.979 89.8458L100.432 89.7184Z" fill="#E6E6E6"/>
<path d="M103.111 90.3985L100.351 90.1216L97.604 60.7539L96.5657 90.027L93.8543 89.9299L89.2847 49.3881H106.743L103.111 90.3985Z" fill="#2F2E41"/>
<path d="M98.8928 13.7678C101.805 13.7678 104.166 11.4071 104.166 8.495C104.166 5.58293 101.805 3.22224 98.8928 3.22224C95.9808 3.22224 93.6201 5.58293 93.6201 8.495C93.6201 11.4071 95.9808 13.7678 98.8928 13.7678Z" fill="#FFB9B9"/>
<path d="M109.321 50.3256L87.9958 50.5599C91.1606 38.5119 93.0537 27.3203 89.7534 19.6264L95.0261 17.0486C97.5685 19.7004 100.4 19.427 103.463 16.8142L108.501 18.1031C107.638 28.1925 108.025 38.9983 109.321 50.3256Z" fill="#2F2E41"/>
<path d="M82.1372 37.9053L95.3777 43.178L98.3379 44.0487C98.4703 44.0876 98.6092 44.0994 98.7463 44.0833C98.8834 44.0672 99.0158 44.0236 99.1356 43.955C99.2553 43.8864 99.36 43.7944 99.4433 43.6843C99.5266 43.5743 99.5868 43.4485 99.6203 43.3146C99.679 43.0799 99.6526 42.8319 99.5459 42.6147C99.4392 42.3975 99.259 42.2251 99.0373 42.1281L95.9635 41.1861L86.7069 35.7962L88.6402 30.6992L84.5978 28.5315L82.1372 37.9053Z" fill="#FFB9B9"/>
<path d="M82.2543 28.2971C84.7735 29.2799 86.7771 30.9572 88.3473 33.2184L93.2685 26.0709L89.7534 19.6264L82.2543 28.2971Z" fill="#2F2E41"/>
<path d="M104.836 7.64045C102.695 7.08904 100.591 7.01334 98.5461 7.71274C97.2432 8.34377 95.6785 8.28563 93.9385 7.7657V2.50507L103.332 2.75557L104.836 7.64045Z" fill="#2F2E41"/>
<path d="M95.3337 31.7618C94.9197 31.7623 94.5227 31.927 94.2299 32.2197C93.9372 32.5125 93.7725 32.9094 93.772 33.3235L94.3885 46.227C94.3889 46.641 94.5536 47.038 94.8464 47.3308C95.1391 47.6235 95.5361 47.7882 95.9501 47.7887H102.998C103.412 47.7882 103.809 47.6235 104.101 47.3308C104.394 47.038 104.559 46.641 104.559 46.227L105.176 33.3235C105.175 32.9094 105.011 32.5125 104.718 32.2197C104.425 31.927 104.028 31.7623 103.614 31.7618H95.3337Z" fill="white"/>
<path d="M115.33 36.9305L103.789 41.5259L102.918 41.8726C102.89 41.8834 102.863 41.8926 102.833 41.9019L99.9162 42.7602C99.5433 42.8697 99.027 42.3673 98.725 42.0205C98.5754 41.8534 98.4907 41.6383 98.4862 41.4141C98.4816 41.1899 98.5576 40.9715 98.7003 40.7985C98.7406 40.752 98.785 40.7092 98.8328 40.6706C98.9453 40.5831 99.0776 40.5248 99.2181 40.5011L102.132 39.9278C102.237 39.9073 102.337 39.8698 102.43 39.8169L103.789 39.0248L110.845 34.9163C111.042 34.8023 111.191 34.6222 111.267 34.4083C111.343 34.1944 111.34 33.9605 111.26 33.7482L109.913 30.1961C109.83 29.9788 109.83 29.7388 109.911 29.521C109.992 29.3032 110.15 29.1225 110.355 29.0126L112.587 27.8168C112.714 27.7483 112.856 27.7097 113 27.7038C113.145 27.6979 113.289 27.7249 113.421 27.7828C113.554 27.8406 113.672 27.9279 113.766 28.0378C113.86 28.1478 113.928 28.2777 113.964 28.4178L115.901 35.7963C115.961 36.0225 115.936 36.2628 115.83 36.4717C115.725 36.6806 115.547 36.8438 115.33 36.9305Z" fill="#FFB9B9"/>
<path d="M116 27.0082C113.481 27.991 111.477 29.6683 109.907 31.9295L104.986 24.782L108.501 18.1031L116 27.0082Z" fill="#2F2E41"/>
<path d="M102.402 13.188C100.095 14.1475 97.6765 14.1085 95.159 13.188C95.8915 11.9376 94.7965 10.9583 94.2343 9.69606L103.635 9.4167C102.916 10.5133 101.855 11.8088 102.402 13.188Z" fill="white"/>
<path d="M103.535 9.62536L103.426 9.51641L103.58 9.3623L104.501 8.28789L104.618 8.38806L103.693 9.46679L103.535 9.62536Z" fill="white"/>
<path d="M93.5902 8.97225L93.4915 9.09069L94.4162 9.86121L94.5149 9.74277L93.5902 8.97225Z" fill="white"/>
<path d="M103.801 10.5313L102.182 13.0738L102.312 13.1566L103.931 10.6141L103.801 10.5313Z" fill="white"/>
<path d="M93.76 10.5311L93.63 10.6139L95.2481 13.1566L95.3781 13.0739L93.76 10.5311Z" fill="white"/>
<path d="M104.097 38.8068V41.5986L103.125 41.9857C103.094 41.9977 103.063 42.008 103.031 42.0183L99.7742 42.9765C99.358 43.0986 98.7817 42.5378 98.4446 42.1508C98.2776 41.9643 98.1831 41.7241 98.178 41.4738C98.173 41.2236 98.2578 40.9798 98.417 40.7867C98.462 40.7348 98.5115 40.687 98.565 40.6439C98.6905 40.5462 98.8382 40.4812 98.995 40.4547L102.248 39.8148C102.365 39.7919 102.477 39.7501 102.58 39.6909L104.097 38.8068Z" fill="white"/>
<path d="M105.506 28.8486H104.949C104.949 20.9723 103.327 15.4833 101.747 15.4833L101.607 14.9265C103.025 14.9265 103.928 17.2109 104.437 19.1274C105.126 21.7255 105.506 25.1779 105.506 28.8486Z" fill="white"/>
<path d="M92.6971 26.8995H92.1402C92.1402 19.686 93.7732 15.2049 96.1777 15.2049L96.0384 15.7618C94.3752 15.7618 92.6971 19.2057 92.6971 26.8995Z" fill="white"/>
<path d="M105.227 30.3801C105.996 30.3801 106.619 29.7567 106.619 28.9878C106.619 28.2189 105.996 27.5956 105.227 27.5956C104.458 27.5956 103.835 28.2189 103.835 28.9878C103.835 29.7567 104.458 30.3801 105.227 30.3801Z" fill="white"/>
<path d="M90.4696 30.2408H89.9127C89.9127 28.2449 91.0369 26.6211 92.4187 26.6211V27.178C91.3439 27.178 90.4696 28.552 90.4696 30.2408Z" fill="white"/>
<path d="M94.9246 30.2408H94.3678C94.3678 28.552 93.4934 27.178 92.4187 27.178V26.6211C93.8005 26.6211 94.9246 28.2449 94.9246 30.2408Z" fill="white"/>
<path d="M94.6462 30.9369C94.9538 30.9369 95.2031 30.6876 95.2031 30.3801C95.2031 30.0725 94.9538 29.8232 94.6462 29.8232C94.3387 29.8232 94.0893 30.0725 94.0893 30.3801C94.0893 30.6876 94.3387 30.9369 94.6462 30.9369Z" fill="white"/>
<path d="M90.1911 30.9369C90.4987 30.9369 90.748 30.6876 90.748 30.3801C90.748 30.0725 90.4987 29.8232 90.1911 29.8232C89.8836 29.8232 89.6342 30.0725 89.6342 30.3801C89.6342 30.6876 89.8836 30.9369 90.1911 30.9369Z" fill="white"/>
<path d="M23.0799 11.6653L13.2995 13.3215C13.0579 13.3628 12.8096 13.3129 12.6026 13.1816C12.3956 13.0503 12.2447 12.8469 12.1791 12.6107C11.4725 10.0604 9.99516 6.73336 11.4295 5.06321C11.5026 4.36058 11.8438 3.71321 12.3822 3.25586C12.9206 2.79851 13.6146 2.56641 14.3198 2.60789C16.067 -0.12705 18.9772 0.283584 20.9441 1.99168C22.9237 2.67472 23.67 3.88819 23.409 5.53492C24.2642 6.28347 24.7125 7.12662 24.807 8.05204C24.8519 8.56702 24.7863 9.08565 24.6148 9.5733C24.4433 10.061 24.1698 10.5064 23.8125 10.88L23.0799 11.6653Z" fill="#2F2E41"/>
<path d="M21.5593 19.3651L13.9773 18.9191C14.7203 17.2137 15.0171 15.5714 14.7206 14.0131H20.3699C20.3571 15.2096 20.9525 17.2792 21.5593 19.3651Z" fill="#9F616A"/>
<path d="M12.4326 89.425L12.1217 93.6764C12.1076 93.8688 12.1348 94.0621 12.2015 94.2431C12.2683 94.4242 12.3729 94.5889 12.5085 94.7261C12.6441 94.8634 12.8074 94.9701 12.9876 95.0391C13.1678 95.1081 13.3607 95.1377 13.5533 95.1261L15.737 94.9938C15.8382 94.9876 15.9368 94.9593 16.0257 94.9108C16.1147 94.8622 16.1919 94.7947 16.2519 94.7129C16.3118 94.6311 16.353 94.5372 16.3725 94.4377C16.392 94.3383 16.3894 94.2357 16.3648 94.1374L15.1527 89.289L12.4326 89.425Z" fill="#E6E6E6"/>
<path d="M19.5022 89.289L18.2901 94.1374C18.2655 94.2357 18.2629 94.3383 18.2824 94.4377C18.3019 94.5372 18.3431 94.6311 18.403 94.7129C18.463 94.7946 18.5402 94.8622 18.6292 94.9107C18.7181 94.9593 18.8167 94.9876 18.9179 94.9938L21.1016 95.1261C21.2942 95.1377 21.4871 95.1081 21.6673 95.0391C21.8475 94.9701 22.0108 94.8634 22.1464 94.7261C22.282 94.5889 22.3867 94.4242 22.4534 94.2431C22.5201 94.0621 22.5473 93.8688 22.5332 93.6764L22.2223 89.425L19.5022 89.289Z" fill="#E6E6E6"/>
<path d="M22.3632 90.0153L19.4164 89.7195L16.4826 58.3594L15.3738 89.6184L12.4786 89.5147L7.59891 46.2227H26.242L22.3632 90.0153Z" fill="#2F2E41"/>
<path d="M17.6943 15.8179C20.8039 15.8179 23.3248 13.297 23.3248 10.1874C23.3248 7.07777 20.8039 4.55692 17.6943 4.55692C14.5847 4.55692 12.0638 7.07777 12.0638 10.1874C12.0638 13.297 14.5847 15.8179 17.6943 15.8179Z" fill="#9F616A"/>
<path d="M24.0401 7.49764C21.7549 7.09966 19.5081 7.04502 17.324 7.54982C15.9328 8.00527 14.2619 7.96331 12.4038 7.58804V3.79109L22.4351 3.9719L24.0401 7.49764Z" fill="#2F2E41"/>
<path d="M21.4414 14.7051C18.9782 15.7297 16.3955 15.6881 13.7071 14.7051C14.4894 13.3699 13.3201 12.3241 12.7198 10.9763L22.7579 10.6779C21.9902 11.8489 20.8576 13.2323 21.4414 14.7051Z" fill="white"/>
<path d="M12.0286 10.2073L11.9299 10.3258L12.9172 11.1485L13.0159 11.0301L12.0286 10.2073Z" fill="white"/>
<path d="M22.9398 11.8709L21.2115 14.5859L21.3416 14.6686L23.0698 11.9536L22.9398 11.8709Z" fill="white"/>
<path d="M12.2086 11.8708L12.0786 11.9535L13.8065 14.6688L13.9365 14.586L12.2086 11.8708Z" fill="white"/>
<path d="M6.98992 35.8671L2.67859 33.1911L6.3554 22.4225C6.76548 21.3113 7.55095 20.3783 8.576 19.7849L9.81459 19.0678L9.92228 29.9313L6.98992 35.8671Z" fill="#2F2E41"/>
<path d="M25.6254 41.0972L24.9876 35.6338C24.9535 32.7501 25.4441 29.9621 26.6139 27.3931L27.2086 19.3651L20.6673 16.6891C20.6472 16.8224 20.6302 16.9556 20.611 17.0889L17.5453 18.6218L14.5554 17.9423L14.5719 16.9865L8.62527 19.6625C10.5918 28.8052 9.51922 38.2995 6.13744 49.5139L13.9716 51.656L14.0368 47.8943L21.0187 47.3956C21.0906 48.616 21.1484 49.8148 21.182 50.987C25.1217 52.4375 25.257 52.4134 28.8466 50.3367C27.4171 47.3312 26.2852 44.2037 25.6254 41.0972Z" fill="#2F2E41"/>
<path d="M35.6826 34.5291L31.6686 33.1911L25.248 25.7166L27.2085 19.3652L36.1286 31.8532L35.6826 34.5291Z" fill="#2F2E41"/>
<path d="M23.1028 40.3157C23.1685 40.604 23.3458 40.8544 23.5958 41.0121C23.8458 41.1698 24.1482 41.2219 24.4366 41.157L27.8439 40.3854L27.3515 38.2104L23.944 38.9819C23.6556 39.0473 23.405 39.2245 23.2472 39.4746C23.0895 39.7248 23.0375 40.0273 23.1028 40.3157V40.3157Z" fill="#E6E6E6"/>
<path d="M26.1679 37.7998L28.1006 41.3678C31.3513 40.4612 34.1686 37.6029 36.8719 34.2318L36.1286 31.8531L31.5199 33.0425L26.1679 37.7998Z" fill="#2F2E41"/>
<path d="M0.968903 26.6078L4.67912 27.2703L13.1596 39.3285L8.65439 38.2684L0.968903 26.6078Z" fill="#E6E6E6"/>
<path d="M0.310821 26.4602C0.254283 26.461 0.199012 26.4771 0.150789 26.5066C0.102566 26.5361 0.0631611 26.5781 0.0366967 26.628C0.0102322 26.678 -0.00231967 26.7342 0.000352714 26.7906C0.0030251 26.8471 0.0208252 26.9018 0.0518893 26.9491L7.97891 38.9764C8.02315 39.0436 8.09147 39.0913 8.16983 39.1097L11.858 39.9775C11.9202 39.9921 11.9854 39.9875 12.0449 39.9642C12.1044 39.941 12.1554 39.9002 12.1912 39.8473C12.227 39.7943 12.2458 39.7318 12.2452 39.6679C12.2446 39.604 12.2246 39.5418 12.1879 39.4896L3.48451 27.1145C3.4609 27.0807 3.43089 27.052 3.39617 27.0299C3.36146 27.0078 3.32273 26.9927 3.28219 26.9856L0.370273 26.4656C0.35065 26.462 0.330757 26.4602 0.310821 26.4602Z" fill="#3F3D56"/>
<path d="M5.25572 35.0596L5.47604 37.2787L8.95257 36.9336C9.24684 36.9044 9.51746 36.7595 9.70489 36.5307C9.89232 36.302 9.98122 36.0082 9.95201 35.7139C9.9228 35.4196 9.77789 35.149 9.54916 34.9616C9.32043 34.7741 9.0266 34.6853 8.73233 34.7145L5.25572 35.0596Z" fill="#E6E6E6"/>
<path d="M2.23267 34.8025C2.23772 35.5592 2.54162 36.2832 3.07815 36.8168C3.61468 37.3504 4.34035 37.6503 5.09704 37.6511H5.66869L6.08486 34.1829L2.63903 32.9424L2.23267 34.8025Z" fill="#2F2E41"/>
<path d="M22.4832 11.0616L22.3743 10.9527L22.5389 10.7881L23.5222 9.64046L23.6392 9.74063L22.6518 10.8926L22.4832 11.0616Z" fill="white"/>
<path d="M42.1471 94.7905H74.509V55.5376C74.509 53.4591 72.4617 51.7681 69.9453 51.7681H46.7108C44.1943 51.7681 42.1471 53.4591 42.1471 55.5376V94.7905Z" fill="#E6E6E6"/>
<path d="M44.6128 93.1673H72.0433V59.8958C72.0433 58.134 70.308 56.7007 68.1751 56.7007H48.481C46.348 56.7007 44.6128 58.134 44.6128 59.8958V93.1673Z" fill="white"/>
<path d="M41.9026 48.7133C41.1028 48.7133 40.452 49.2508 40.452 49.9115V53.3702C40.452 54.0309 41.1028 54.5684 41.9026 54.5684H74.7536C75.5534 54.5684 76.2042 54.0309 76.2042 53.3702V49.9115C76.2042 49.2508 75.5534 48.7133 74.7536 48.7133H41.9026Z" fill="#3F3D56"/>
<path d="M48.6473 88.901C48.2718 88.9021 47.912 89.0518 47.6464 89.3174C47.3809 89.5829 47.2312 89.9427 47.2301 90.3183C47.2312 90.6938 47.3808 91.0537 47.6464 91.3192C47.9119 91.5847 48.2718 91.7344 48.6473 91.7355H51.3001V88.901H48.6473Z" fill="#3F3D56"/>
<path d="M53.7349 88.901H51.1548V91.7355H53.7349C54.1104 91.7344 54.4703 91.5848 54.7358 91.3192C55.0014 91.0537 55.151 90.6938 55.1521 90.3183C55.151 89.9427 55.0014 89.5829 54.7358 89.3174C54.4703 89.0518 54.1104 88.9021 53.7349 88.901Z" fill="#6C63FF"/>
<path opacity="0.2" d="M54.6597 89.2481C54.8832 89.5044 55.0065 89.8329 55.0068 90.1729C55.0057 90.5485 54.856 90.9083 54.5905 91.1738C54.3249 91.4394 53.9651 91.5891 53.5895 91.5902H51.1548V91.7355H53.7349C54.1104 91.7344 54.4703 91.5847 54.7358 91.3192C55.0014 91.0536 55.151 90.6938 55.1521 90.3183C55.1518 90.115 55.1076 89.9141 55.0226 89.7295C54.9377 89.5448 54.8139 89.3806 54.6597 89.2481Z" fill="black"/>
<path d="M60.6183 67.5536C60.3599 67.281 60.0041 67.1219 59.6288 67.1108C59.2534 67.0997 58.8889 67.2376 58.6148 67.4944C58.3423 67.7528 58.1832 68.1085 58.1721 68.4839C58.161 68.8593 58.2989 69.2238 58.5557 69.4978L60.3753 71.4282L62.4379 69.4839L60.6183 67.5536Z" fill="#3F3D56"/>
<path d="M64.108 71.2556L62.3382 69.3781L60.2756 71.3224L62.0454 73.1999C62.3038 73.4724 62.6595 73.6316 63.0349 73.6426C63.4103 73.6537 63.7748 73.5158 64.0488 73.259C64.3213 73.0006 64.4805 72.6449 64.4916 72.2695C64.5027 71.8941 64.3648 71.5296 64.108 71.2556Z" fill="#6C63FF"/>
<path opacity="0.2" d="M64.4898 72.1666C64.4566 72.505 64.3021 72.82 64.0549 73.0535C63.7809 73.3103 63.4164 73.4482 63.041 73.4372C62.6656 73.4261 62.3099 73.2669 62.0515 72.9944L60.3814 71.2227L60.2756 71.3224L62.0454 73.1999C62.3038 73.4724 62.6595 73.6316 63.0349 73.6426C63.4103 73.6537 63.7748 73.5158 64.0488 73.259C64.1965 73.1193 64.3124 72.9494 64.3884 72.7609C64.4645 72.5724 64.4991 72.3697 64.4898 72.1666Z" fill="black"/>
<path d="M53.0671 72.0226C52.8087 71.7501 52.453 71.5909 52.0776 71.5798C51.7023 71.5687 51.3377 71.7066 51.0637 71.9634C50.7912 72.2218 50.632 72.5776 50.621 72.9529C50.6099 73.3283 50.7478 73.6928 51.0046 73.9668L52.8242 75.8972L54.8868 73.9529L53.0671 72.0226Z" fill="#3F3D56"/>
<path d="M56.5569 75.7246L54.7871 73.8472L52.7245 75.7914L54.4943 77.6689C54.7527 77.9414 55.1084 78.1006 55.4838 78.1117C55.8592 78.1227 56.2237 77.9848 56.4977 77.728C56.7702 77.4696 56.9294 77.1139 56.9405 76.7385C56.9516 76.3631 56.8137 75.9986 56.5569 75.7246Z" fill="#6C63FF"/>
<path opacity="0.2" d="M56.9387 76.6356C56.9055 76.9741 56.751 77.2891 56.5038 77.5226C56.2298 77.7793 55.8653 77.9173 55.4899 77.9062C55.1145 77.8951 54.7588 77.7359 54.5004 77.4634L52.8303 75.6917L52.7245 75.7914L54.4943 77.6689C54.7527 77.9414 55.1084 78.1006 55.4838 78.1117C55.8592 78.1227 56.2237 77.9848 56.4977 77.728C56.6454 77.5884 56.7613 77.4185 56.8373 77.2299C56.9134 77.0414 56.948 76.8387 56.9387 76.6356Z" fill="black"/>
<path d="M60.6183 76.1834C60.3599 75.9109 60.0041 75.7517 59.6288 75.7406C59.2534 75.7295 58.8889 75.8674 58.6148 76.1242C58.3423 76.3826 58.1832 76.7384 58.1721 77.1138C58.161 77.4891 58.2989 77.8536 58.5557 78.1277L60.3753 80.058L62.4379 78.1137L60.6183 76.1834Z" fill="#3F3D56"/>
<path d="M64.108 79.8854L62.3382 78.008L60.2756 79.9522L62.0454 81.8297C62.3038 82.1022 62.6595 82.2614 63.0349 82.2725C63.4103 82.2836 63.7748 82.1456 64.0488 81.8888C64.3213 81.6305 64.4805 81.2747 64.4916 80.8993C64.5027 80.524 64.3648 80.1594 64.108 79.8854Z" fill="#6C63FF"/>
<path opacity="0.2" d="M64.4898 80.7965C64.4566 81.1349 64.3021 81.4499 64.0549 81.6834C63.7809 81.9402 63.4164 82.0781 63.041 82.067C62.6656 82.0559 62.3099 81.8967 62.0515 81.6242L60.3814 79.8525L60.2756 79.9522L62.0454 81.8297C62.3038 82.1022 62.6595 82.2614 63.0349 82.2725C63.4103 82.2836 63.7748 82.1456 64.0488 81.8889C64.1965 81.7492 64.3124 81.5793 64.3884 81.3908C64.4645 81.2022 64.4991 80.9995 64.4898 80.7965Z" fill="black"/>
<path d="M65.2248 85.0393C65.4942 84.7776 65.649 84.42 65.6556 84.0445C65.6621 83.669 65.5197 83.3062 65.2596 83.0353C64.9979 82.766 64.6403 82.6111 64.2648 82.6046C63.8893 82.5981 63.5265 82.7404 63.2557 83.0005L61.3475 84.8435L63.3167 86.8823L65.2248 85.0393Z" fill="#3F3D56"/>
<path d="M61.5655 88.5738L63.4213 86.7813L61.4521 84.7425L59.5963 86.535C59.3269 86.7967 59.1721 87.1543 59.1656 87.5298C59.1591 87.9053 59.3014 88.2681 59.5615 88.539C59.8232 88.8083 60.1808 88.9632 60.5563 88.9697C60.9318 88.9762 61.2946 88.8339 61.5655 88.5738Z" fill="#6C63FF"/>
<path opacity="0.2" d="M60.6592 88.9666C60.3204 88.9375 60.0035 88.7869 59.767 88.5425C59.5069 88.2716 59.3646 87.9088 59.3711 87.5334C59.3776 87.1579 59.5325 86.8002 59.8018 86.5385L61.5531 84.8471L61.4521 84.7425L59.5963 86.535C59.3269 86.7967 59.1721 87.1543 59.1656 87.5298C59.1591 87.9053 59.3014 88.2681 59.5615 88.539C59.703 88.6849 59.8743 88.7987 60.0637 88.8725C60.2531 88.9463 60.4562 88.9784 60.6592 88.9666Z" fill="black"/>
<path d="M55.054 80.5703C55.3233 80.3086 55.4782 79.951 55.4847 79.5755C55.4912 79.2 55.3489 78.8372 55.0887 78.5663C54.8271 78.2969 54.4694 78.1421 54.0939 78.1356C53.7185 78.1291 53.3556 78.2714 53.0848 78.5315L51.1767 80.3745L53.1459 82.4132L55.054 80.5703Z" fill="#3F3D56"/>
<path d="M51.3946 84.1047L53.2504 82.3123L51.2812 80.2735L49.4254 82.0659C49.156 82.3276 49.0012 82.6853 48.9947 83.0608C48.9882 83.4362 49.1305 83.799 49.3906 84.0699C49.6523 84.3393 50.0099 84.4941 50.3854 84.5006C50.7609 84.5072 51.1237 84.3648 51.3946 84.1047Z" fill="#6C63FF"/>
<path opacity="0.2" d="M50.4883 84.4976C50.1495 84.4685 49.8326 84.3179 49.5961 84.0735C49.336 83.8026 49.1937 83.4398 49.2002 83.0643C49.2067 82.6888 49.3616 82.3312 49.6309 82.0695L51.3822 80.378L51.2812 80.2735L49.4254 82.0659C49.156 82.3276 49.0012 82.6853 48.9947 83.0608C48.9882 83.4362 49.1305 83.799 49.3906 84.0699C49.5321 84.2159 49.7034 84.3297 49.8928 84.4035C50.0822 84.4773 50.2853 84.5094 50.4883 84.4976Z" fill="black"/>
<path d="M69.5398 75.1766C69.8091 74.9149 69.964 74.5573 69.9705 74.1818C69.977 73.8063 69.8347 73.4435 69.5746 73.1726C69.3129 72.9033 68.9552 72.7484 68.5797 72.7419C68.2043 72.7354 67.8415 72.8777 67.5706 73.1378L65.6625 74.9808L67.6317 77.0196L69.5398 75.1766Z" fill="#3F3D56"/>
<path d="M65.8804 78.7111L67.7362 76.9186L65.767 74.8798L63.9112 76.6723C63.6419 76.934 63.487 77.2916 63.4805 77.6671C63.474 78.0426 63.6163 78.4054 63.8764 78.6763C64.1381 78.9456 64.4957 79.1005 64.8712 79.107C65.2467 79.1135 65.6095 78.9712 65.8804 78.7111Z" fill="#6C63FF"/>
<path opacity="0.2" d="M64.9741 79.1039C64.6353 79.0748 64.3184 78.9242 64.0819 78.6798C63.8218 78.409 63.6795 78.0462 63.686 77.6707C63.6925 77.2952 63.8474 76.9375 64.1167 76.6759L65.868 74.9844L65.767 74.8798L63.9112 76.6723C63.6419 76.934 63.487 77.2916 63.4805 77.6671C63.474 78.0426 63.6163 78.4054 63.8764 78.6763C64.0179 78.8223 64.1892 78.936 64.3786 79.0098C64.568 79.0836 64.7711 79.1157 64.9741 79.1039Z" fill="black"/>
<path d="M66.3201 86.3543C66.0617 86.0818 65.706 85.9226 65.3306 85.9115C64.9552 85.9004 64.5907 86.0383 64.3167 86.2951C64.0442 86.5535 63.885 86.9093 63.8739 87.2846C63.8628 87.66 64.0008 88.0245 64.2575 88.2986L66.0772 90.2289L68.1397 88.2846L66.3201 86.3543Z" fill="#3F3D56"/>
<path d="M69.8098 90.0563L68.04 88.1789L65.9775 90.1231L67.7473 92.0006C68.0057 92.2731 68.3614 92.4323 68.7368 92.4434C69.1121 92.4545 69.4767 92.3165 69.7507 92.0597C70.0232 91.8014 70.1824 91.4456 70.1935 91.0702C70.2045 90.6949 70.0666 90.3303 69.8098 90.0563Z" fill="#6C63FF"/>
<path opacity="0.2" d="M70.1916 90.9674C70.1584 91.3058 70.004 91.6208 69.7567 91.8543C69.4827 92.1111 69.1182 92.249 68.7428 92.2379C68.3675 92.2268 68.0117 92.0676 67.7533 91.7951L66.0833 90.0234L65.9775 90.1231L67.7473 92.0006C68.0057 92.2731 68.3614 92.4323 68.7368 92.4434C69.1121 92.4545 69.4767 92.3165 69.7507 92.0598C69.8984 91.9201 70.0142 91.7502 70.0903 91.5616C70.1664 91.3731 70.201 91.1704 70.1916 90.9674Z" fill="black"/>
<path d="M56.3033 86.2002C56.0449 85.9277 55.6892 85.7685 55.3138 85.7574C54.9384 85.7463 54.5739 85.8842 54.2999 86.141C54.0274 86.3994 53.8682 86.7552 53.8571 87.1305C53.846 87.5059 53.984 87.8704 54.2408 88.1444L56.0604 90.0748L58.123 88.1305L56.3033 86.2002Z" fill="#3F3D56"/>
<path d="M59.793 89.9022L58.0233 88.0247L55.9607 89.969L57.7305 91.8465C57.9889 92.119 58.3446 92.2782 58.72 92.2893C59.0954 92.3003 59.4599 92.1624 59.7339 91.9056C60.0064 91.6472 60.1656 91.2915 60.1767 90.9161C60.1878 90.5407 60.0498 90.1762 59.793 89.9022Z" fill="#6C63FF"/>
<path opacity="0.2" d="M60.1748 90.8132C60.1416 91.1517 59.9872 91.4667 59.74 91.7001C59.4659 91.9569 59.1014 92.0949 58.7261 92.0838C58.3507 92.0727 57.9949 91.9135 57.7366 91.641L56.0665 89.8693L55.9607 89.969L57.7305 91.8465C57.9889 92.119 58.3446 92.2782 58.72 92.2893C59.0954 92.3003 59.4599 92.1624 59.7339 91.9056C59.8816 91.7659 59.9974 91.5961 60.0735 91.4075C60.1496 91.219 60.1842 91.0163 60.1748 90.8132Z" fill="black"/>
<path d="M59.1229 81.1157C59.123 81.5869 58.9603 82.0437 58.6623 82.4087C58.3644 82.7737 57.9494 83.0245 57.4878 83.1188C57.218 83.1733 56.94 83.1733 56.6702 83.1188C56.2086 83.0245 55.7937 82.7736 55.4958 82.4086C55.1978 82.0436 55.0351 81.5869 55.0351 81.1157C55.0351 80.6446 55.1978 80.1879 55.4958 79.8229C55.7937 79.4579 56.2086 79.207 56.6702 79.1127C56.94 79.0582 57.218 79.0582 57.4878 79.1127C57.9494 79.207 58.3644 79.4578 58.6623 79.8228C58.9603 80.1878 59.123 80.6446 59.1229 81.1157Z" fill="#6C63FF"/>
<path opacity="0.2" d="M57.4878 79.1127V83.1188C57.218 83.1733 56.94 83.1733 56.6702 83.1188V79.1127C56.94 79.0582 57.218 79.0582 57.4878 79.1127Z" fill="black"/>
<path d="M60.0475 72.9482C60.0476 73.4194 59.8849 73.8762 59.587 74.2412C59.289 74.6062 58.8741 74.857 58.4124 74.9513C58.1426 75.0058 57.8646 75.0058 57.5948 74.9513C57.1332 74.8569 56.7184 74.606 56.4204 74.2411C56.1225 73.8761 55.9597 73.4194 55.9597 72.9482C55.9597 72.4771 56.1225 72.0204 56.4204 71.6554C56.7184 71.2904 57.1332 71.0395 57.5948 70.9452C57.8646 70.8907 58.1426 70.8907 58.4124 70.9452C58.8741 71.0394 59.289 71.2903 59.587 71.6553C59.8849 72.0203 60.0476 72.477 60.0475 72.9482Z" fill="#6C63FF"/>
<path opacity="0.2" d="M58.4124 70.9452V74.9513C58.1426 75.0058 57.8646 75.0058 57.5948 74.9513V70.9452C57.8646 70.8907 58.1426 70.8907 58.4124 70.9452Z" fill="black"/>
<path d="M60.0475 84.6602C60.0476 85.1313 59.8849 85.5881 59.587 85.9531C59.289 86.3181 58.8741 86.5689 58.4124 86.6632C58.1426 86.7177 57.8646 86.7177 57.5948 86.6632C57.1332 86.5689 56.7184 86.318 56.4204 85.953C56.1225 85.588 55.9597 85.1313 55.9597 84.6601C55.9597 84.189 56.1225 83.7323 56.4204 83.3673C56.7184 83.0023 57.1332 82.7514 57.5948 82.6571C57.8646 82.6026 58.1426 82.6026 58.4124 82.6571C58.8741 82.7514 59.289 83.0022 59.587 83.3672C59.8849 83.7322 60.0476 84.189 60.0475 84.6602Z" fill="#6C63FF"/>
<path opacity="0.2" d="M58.4124 82.6571V86.6632C58.1426 86.7177 57.8646 86.7177 57.5948 86.6632V82.6571C57.8646 82.6026 58.1426 82.6026 58.4124 82.6571Z" fill="black"/>
<path d="M65.133 90.362C65.1331 90.8332 64.9704 91.29 64.6724 91.655C64.3744 92.02 63.9595 92.2708 63.4979 92.3651C63.2281 92.4196 62.9501 92.4196 62.6803 92.3651C62.2187 92.2707 61.8038 92.0198 61.5059 91.6549C61.2079 91.2899 61.0452 90.8332 61.0452 90.362C61.0452 89.8909 61.2079 89.4342 61.5059 89.0692C61.8038 88.7042 62.2187 88.4533 62.6803 88.359C62.9501 88.3045 63.2281 88.3045 63.4979 88.359C63.9595 88.4532 64.3744 88.7041 64.6724 89.0691C64.9704 89.4341 65.1331 89.8908 65.133 90.362Z" fill="#6C63FF"/>
<path opacity="0.2" d="M63.4978 88.359V92.3651C63.228 92.4196 62.9501 92.4196 62.6803 92.3651V88.359C62.9501 88.3045 63.228 88.3045 63.4978 88.359Z" fill="black"/>
<path d="M69.6254 79.8713C69.9647 80.1982 70.1806 80.6323 70.2367 81.1001C70.2927 81.568 70.1854 82.0408 69.9328 82.4386C69.7848 82.6707 69.5919 82.8708 69.3655 83.0272C68.9772 83.2942 68.5086 83.4188 68.0391 83.38C67.5695 83.3412 67.1278 83.1415 66.7885 82.8145C66.4493 82.4875 66.2334 82.0534 66.1774 81.5856C66.1214 81.1178 66.2286 80.645 66.4811 80.2471C66.6291 80.0151 66.822 79.8149 67.0484 79.6585C67.4367 79.3915 67.9052 79.2668 68.3748 79.3056C68.8444 79.3444 69.2862 79.5442 69.6254 79.8713Z" fill="#6C63FF"/>
<path opacity="0.2" d="M67.0485 79.6585L69.9328 82.4386C69.7848 82.6707 69.5919 82.8708 69.3655 83.0272L66.4811 80.2471C66.6291 80.015 66.822 79.8149 67.0485 79.6585Z" fill="black"/>
<path d="M70.2418 84.3403C70.5811 84.6672 70.797 85.1013 70.8531 85.5692C70.9091 86.037 70.8017 86.5098 70.5492 86.9076C70.4012 87.1397 70.2083 87.3398 69.9818 87.4963C69.5936 87.7632 69.125 87.8878 68.6555 87.849C68.1859 87.8102 67.7441 87.6105 67.4049 87.2835C67.0657 86.9565 66.8498 86.5224 66.7938 86.0546C66.7378 85.5868 66.845 85.114 67.0975 84.7162C67.2455 84.4841 67.4384 84.2839 67.6648 84.1275C68.0531 83.8605 68.5216 83.7358 68.9912 83.7746C69.4608 83.8134 69.9026 84.0132 70.2418 84.3403Z" fill="#6C63FF"/>
<path opacity="0.2" d="M67.6649 84.1275L70.5492 86.9076C70.4013 87.1397 70.2084 87.3398 69.9819 87.4963L67.0975 84.7162C67.2455 84.4841 67.4384 84.2839 67.6649 84.1275Z" fill="black"/>
<path d="M51.9034 85.419C52.2427 85.7459 52.4586 86.18 52.5147 86.6479C52.5707 87.1157 52.4634 87.5885 52.2108 87.9863C52.0628 88.2184 51.8699 88.4186 51.6435 88.575C51.2552 88.8419 50.7866 88.9665 50.3171 88.9277C49.8475 88.889 49.4058 88.6892 49.0665 88.3622C48.7273 88.0353 48.5114 87.6011 48.4554 87.1333C48.3994 86.6655 48.5066 86.1927 48.7591 85.7949C48.9071 85.5628 49.1 85.3627 49.3264 85.2062C49.7147 84.9392 50.1832 84.8146 50.6528 84.8533C51.1224 84.8921 51.5642 85.0919 51.9034 85.419Z" fill="#6C63FF"/>
<path opacity="0.2" d="M49.3265 85.2062L52.2108 87.9863C52.0628 88.2184 51.8699 88.4186 51.6435 88.575L48.7591 85.7949C48.9071 85.5628 49.1 85.3627 49.3265 85.2062Z" fill="black"/>
<path opacity="0.2" d="M45.3062 48.7133H44.5357V54.4152H45.3062V48.7133Z" fill="black"/>
<path opacity="0.2" d="M49.7753 48.7133H49.0047V54.4152H49.7753V48.7133Z" fill="black"/>
<path opacity="0.2" d="M54.2443 48.7133H53.4738V54.4152H54.2443V48.7133Z" fill="black"/>
<path opacity="0.2" d="M58.7133 48.7133H57.9428V54.4152H58.7133V48.7133Z" fill="black"/>
<path opacity="0.2" d="M63.1823 48.7133H62.4118V54.4152H63.1823V48.7133Z" fill="black"/>
<path opacity="0.2" d="M67.6514 48.7133H66.8808V54.4152H67.6514V48.7133Z" fill="black"/>
<path opacity="0.2" d="M72.1204 48.7133H71.3499V54.4152H72.1204V48.7133Z" fill="black"/>
</svg>
