<svg width="99" height="128" viewBox="0 0 99 128" fill="none" xmlns="http://www.w3.org/2000/svg">
<path d="M4.67261 127.008H93.8756V18.8106C93.8756 13.0814 88.2324 8.42043 81.2962 8.42043H17.252C10.3156 8.42043 4.67261 13.0814 4.67261 18.8106V127.008Z" fill="#E6E6E6"/>
<path d="M11.4691 122.534H87.0793V30.8237C87.0793 25.9674 82.296 22.0167 76.4167 22.0167H22.1317C16.2522 22.0167 11.4691 25.9674 11.4691 30.8237V122.534Z" fill="white"/>
<path d="M3.99866 0C1.79389 0 0 1.48169 0 3.30276V12.8364C0 14.6574 1.79389 16.1391 3.99866 16.1391H94.5496C96.7544 16.1391 98.5481 14.6574 98.5481 12.8364V3.30276C98.5481 1.48169 96.7544 0 94.5496 0H3.99866Z" fill="#3F3D56"/>
<path d="M22.5901 110.774C21.555 110.777 20.5631 111.19 19.8311 111.922C19.0992 112.654 18.6866 113.646 18.6836 114.681C18.6866 115.716 19.0992 116.708 19.8311 117.44C20.5631 118.172 21.555 118.584 22.5901 118.587H29.9023V110.774H22.5901Z" fill="#3F3D56"/>
<path d="M36.6135 110.774H29.5016V118.587H36.6135C37.6486 118.584 38.6405 118.172 39.3724 117.44C40.1044 116.708 40.517 115.716 40.52 114.681C40.517 113.646 40.1044 112.654 39.3724 111.922C38.6405 111.19 37.6486 110.777 36.6135 110.774Z" fill="#6C63FF"/>
<path opacity="0.2" d="M39.1626 111.731C39.7786 112.437 40.1185 113.343 40.1193 114.28C40.1163 115.315 39.7037 116.307 38.9718 117.039C38.2398 117.771 37.2479 118.184 36.2128 118.187H29.5016V118.587H36.6135C37.6486 118.584 38.6405 118.172 39.3724 117.44C40.1044 116.708 40.517 115.716 40.52 114.681C40.5191 114.12 40.3973 113.567 40.1631 113.058C39.9288 112.549 39.5876 112.096 39.1626 111.731Z" fill="black"/>
<path d="M55.5867 51.9316C54.8745 51.1805 53.8939 50.7417 52.8592 50.7112C51.8245 50.6806 50.8198 51.0608 50.0645 51.7686C49.3133 52.4809 48.8745 53.4614 48.844 54.4961C48.8134 55.5308 49.1936 56.5356 49.9014 57.2909L54.9171 62.6117L60.6024 57.2525L55.5867 51.9316Z" fill="#3F3D56"/>
<path d="M65.2061 62.136L60.3279 56.961L54.6426 62.3202L59.5208 67.4952C60.2331 68.2464 61.2136 68.6852 62.2483 68.7157C63.283 68.7463 64.2878 68.3661 65.0431 67.6583C65.7943 66.9461 66.233 65.9655 66.2636 64.9308C66.2941 63.8961 65.914 62.8913 65.2061 62.136Z" fill="#6C63FF"/>
<path opacity="0.2" d="M66.2585 64.6472C66.167 65.58 65.7413 66.4483 65.0598 67.0919C64.3045 67.7997 63.2998 68.1799 62.2651 68.1493C61.2304 68.1188 60.2498 67.68 59.5376 66.9288L54.9341 62.0454L54.6426 62.3202L59.5208 67.4953C60.2331 68.2464 61.2136 68.6852 62.2483 68.7157C63.283 68.7463 64.2878 68.3661 65.0431 67.6583C65.4502 67.2733 65.7695 66.805 65.9793 66.2853C66.189 65.7657 66.2843 65.207 66.2585 64.6472Z" fill="black"/>
<path d="M34.773 64.2502C34.0608 63.499 33.0802 63.0602 32.0455 63.0297C31.0108 62.9991 30.0061 63.3793 29.2508 64.0871C28.4996 64.7994 28.0608 65.7799 28.0303 66.8146C27.9997 67.8493 28.3799 68.8541 29.0877 69.6094L34.1034 74.9302L39.7887 69.571L34.773 64.2502Z" fill="#3F3D56"/>
<path d="M44.3919 74.4545L39.5137 69.2795L33.8284 74.6387L38.7066 79.8137C39.4189 80.5649 40.3994 81.0037 41.4341 81.0342C42.4688 81.0648 43.4736 80.6846 44.2289 79.9768C44.9801 79.2646 45.4188 78.284 45.4494 77.2493C45.4799 76.2146 45.0998 75.2098 44.3919 74.4545Z" fill="#6C63FF"/>
<path opacity="0.2" d="M45.4443 76.9657C45.3528 77.8985 44.9271 78.7668 44.2456 79.4104C43.4903 80.1182 42.4856 80.4984 41.4509 80.4679C40.4162 80.4373 39.4356 79.9985 38.7234 79.2474L34.1199 74.3639L33.8284 74.6387L38.7066 79.8138C39.4189 80.5649 40.3994 81.0037 41.4341 81.0342C42.4688 81.0648 43.4736 80.6846 44.2289 79.9768C44.636 79.5918 44.9553 79.1235 45.1651 78.6038C45.3748 78.0842 45.4701 77.5255 45.4443 76.9657Z" fill="black"/>
<path d="M55.5867 75.7191C54.8745 74.9679 53.8939 74.5292 52.8592 74.4986C51.8245 74.4681 50.8198 74.8482 50.0645 75.5561C49.3133 76.2683 48.8745 77.2489 48.844 78.2836C48.8134 79.3183 49.1936 80.323 49.9014 81.0783L54.9171 86.3992L60.6024 81.04L55.5867 75.7191Z" fill="#3F3D56"/>
<path d="M65.2061 85.9235L60.3279 80.7484L54.6426 86.1076L59.5208 91.2827C60.2331 92.0339 61.2136 92.4726 62.2483 92.5032C63.283 92.5337 64.2878 92.1536 65.0431 91.4458C65.7943 90.7335 66.233 89.753 66.2636 88.7183C66.2941 87.6836 65.914 86.6788 65.2061 85.9235Z" fill="#6C63FF"/>
<path opacity="0.2" d="M66.2585 88.4347C66.167 89.3675 65.7413 90.2358 65.0598 90.8794C64.3045 91.5872 63.2998 91.9674 62.2651 91.9368C61.2304 91.9063 60.2498 91.4675 59.5376 90.7163L54.9341 85.8328L54.6426 86.1076L59.5208 91.2827C60.2331 92.0339 61.2136 92.4726 62.2483 92.5032C63.283 92.5337 64.2878 92.1536 65.0431 91.4458C65.4502 91.0607 65.7695 90.5924 65.9793 90.0728C66.189 89.5532 66.2843 88.9944 66.2585 88.4347Z" fill="black"/>
<path d="M68.2846 100.13C69.0271 99.4085 69.4539 98.4227 69.4718 97.3877C69.4898 96.3527 69.0975 95.3526 68.3805 94.606C67.6592 93.8635 66.6734 93.4367 65.6384 93.4187C64.6034 93.4007 63.6034 93.7931 62.8567 94.51L57.5972 99.59L63.0251 105.21L68.2846 100.13Z" fill="#3F3D56"/>
<path d="M58.198 109.872L63.3134 104.931L57.8855 99.3116L52.7701 104.252C52.0277 104.974 51.6008 105.96 51.5829 106.995C51.5649 108.03 51.9572 109.03 52.6742 109.776C53.3955 110.519 54.3813 110.946 55.4163 110.963C56.4513 110.981 57.4514 110.589 58.198 109.872Z" fill="#6C63FF"/>
<path opacity="0.2" d="M55.6998 110.955C54.766 110.875 53.8926 110.46 53.2407 109.786C52.5238 109.039 52.1314 108.039 52.1494 107.004C52.1674 105.969 52.5942 104.984 53.3367 104.262L58.1639 99.5998L57.8855 99.3116L52.7701 104.252C52.0277 104.974 51.6008 105.96 51.5829 106.995C51.5649 108.03 51.9572 109.03 52.6742 109.776C53.0642 110.179 53.5363 110.492 54.0584 110.696C54.5806 110.899 55.1404 110.987 55.6998 110.955Z" fill="black"/>
<path d="M40.2493 87.8112C40.9918 87.0899 41.4186 86.1041 41.4366 85.0691C41.4545 84.0341 41.0622 83.034 40.3452 82.2874C39.6239 81.5449 38.6381 81.1181 37.6031 81.1001C36.5681 81.0822 35.5681 81.4745 34.8214 82.1915L29.5619 87.2714L34.9898 92.8912L40.2493 87.8112Z" fill="#3F3D56"/>
<path d="M30.1627 97.5537L35.2781 92.6129L29.8502 86.9931L24.7348 91.9339C23.9924 92.6552 23.5656 93.6411 23.5476 94.6761C23.5296 95.711 23.922 96.7111 24.6389 97.4577C25.3602 98.2002 26.3461 98.627 27.381 98.645C28.416 98.6629 29.4161 98.2706 30.1627 97.5537Z" fill="#6C63FF"/>
<path opacity="0.2" d="M27.6646 98.6364C26.7307 98.5563 25.8573 98.1412 25.2055 97.4676C24.4885 96.7209 24.0962 95.7209 24.1141 94.6859C24.1321 93.6509 24.5589 92.6651 25.3014 91.9438L30.1286 87.2813L29.8502 86.9931L24.7348 91.9339C23.9924 92.6552 23.5656 93.6411 23.5476 94.6761C23.5296 95.711 23.922 96.7111 24.6389 97.4577C25.0289 97.8601 25.501 98.1737 26.0232 98.3772C26.5453 98.5806 27.1051 98.669 27.6646 98.6364Z" fill="black"/>
<path d="M80.1784 72.944C80.9209 72.2227 81.3477 71.2369 81.3656 70.2019C81.3836 69.1669 80.9913 68.1669 80.2743 67.4202C79.553 66.6777 78.5672 66.2509 77.5322 66.233C76.4972 66.215 75.4972 66.6073 74.7505 67.3243L69.491 72.4042L74.9189 78.024L80.1784 72.944Z" fill="#3F3D56"/>
<path d="M70.0914 82.6865L75.2069 77.7457L69.779 72.1259L64.6635 77.0667C63.9211 77.788 63.4943 78.7738 63.4763 79.8088C63.4583 80.8438 63.8507 81.8439 64.5676 82.5905C65.289 83.333 66.2748 83.7598 67.3098 83.7778C68.3447 83.7957 69.3448 83.4034 70.0914 82.6865Z" fill="#6C63FF"/>
<path opacity="0.2" d="M67.5933 83.7692C66.6594 83.6891 65.786 83.274 65.1342 82.6004C64.4172 81.8537 64.0249 80.8537 64.0428 79.8187C64.0608 78.7837 64.4877 77.7979 65.2301 77.0765L70.0573 72.4141L69.779 72.1259L64.6635 77.0667C63.9211 77.788 63.4943 78.7738 63.4763 79.8088C63.4583 80.8438 63.8507 81.8439 64.5676 82.5905C64.9576 82.9929 65.4297 83.3065 65.9519 83.5099C66.474 83.7134 67.0339 83.8018 67.5933 83.7692Z" fill="black"/>
<path d="M71.3036 103.754C70.5914 103.003 69.6108 102.564 68.5761 102.534C67.5414 102.503 66.5367 102.884 65.7814 103.591C65.0302 104.304 64.5915 105.284 64.5609 106.319C64.5304 107.354 64.9105 108.358 65.6184 109.114L70.634 114.434L76.3193 109.075L71.3036 103.754Z" fill="#3F3D56"/>
<path d="M80.9229 113.959L76.0447 108.784L70.3594 114.143L75.2376 119.318C75.9499 120.069 76.9304 120.508 77.9651 120.538C78.9998 120.569 80.0046 120.189 80.7599 119.481C81.5111 118.769 81.9498 117.788 81.9804 116.754C82.0109 115.719 81.6308 114.714 80.9229 113.959Z" fill="#6C63FF"/>
<path opacity="0.2" d="M81.9753 116.47C81.8838 117.403 81.4581 118.271 80.7766 118.915C80.0213 119.622 79.0166 120.003 77.9819 119.972C76.9472 119.942 75.9666 119.503 75.2544 118.752L70.6509 113.868L70.3594 114.143L75.2376 119.318C75.9499 120.069 76.9304 120.508 77.9651 120.538C78.9998 120.569 80.0046 120.189 80.7599 119.481C81.167 119.096 81.4863 118.628 81.6961 118.108C81.9058 117.588 82.0011 117.03 81.9753 116.47Z" fill="black"/>
<path d="M43.6933 103.33C42.981 102.578 42.0005 102.14 40.9658 102.109C39.9311 102.079 38.9264 102.459 38.171 103.167C37.4199 103.879 36.9811 104.859 36.9506 105.894C36.92 106.929 37.3002 107.933 38.008 108.689L43.0237 114.01L48.709 108.65L43.6933 103.33Z" fill="#3F3D56"/>
<path d="M53.3123 113.534L48.4341 108.359L42.7488 113.718L47.627 118.893C48.3393 119.644 49.3198 120.083 50.3545 120.114C51.3892 120.144 52.394 119.764 53.1493 119.056C53.9005 118.344 54.3392 117.363 54.3698 116.329C54.4003 115.294 54.0202 114.289 53.3123 113.534Z" fill="#6C63FF"/>
<path opacity="0.2" d="M54.3647 116.045C54.2732 116.978 53.8475 117.846 53.166 118.49C52.4107 119.198 51.406 119.578 50.3713 119.547C49.3366 119.517 48.356 119.078 47.6438 118.327L43.0403 113.443L42.7488 113.718L47.627 118.893C48.3393 119.644 49.3198 120.083 50.3545 120.114C51.3892 120.144 52.394 119.764 53.1493 119.056C53.5564 118.671 53.8757 118.203 54.0855 117.683C54.2952 117.164 54.3905 116.605 54.3647 116.045Z" fill="black"/>
<path d="M51.465 89.3148C51.4653 90.6135 51.0168 91.8725 50.1955 92.8786C49.3742 93.8847 48.2304 94.5762 46.9579 94.8359C46.2142 94.9862 45.448 94.9862 44.7044 94.8359C43.4319 94.5759 42.2884 93.8844 41.4671 92.8783C40.6458 91.8723 40.1973 90.6134 40.1973 89.3147C40.1973 88.016 40.6458 86.7572 41.4671 85.7511C42.2884 84.745 43.4319 84.0535 44.7044 83.7935C45.448 83.6433 46.2142 83.6433 46.9579 83.7935C48.2305 84.0533 49.3742 84.7448 50.1955 85.7509C51.0168 86.757 51.4653 88.016 51.465 89.3148Z" fill="#6C63FF"/>
<path opacity="0.2" d="M46.9579 83.7935V94.8359C46.2142 94.9862 45.448 94.9862 44.7043 94.8359V83.7935C45.448 83.6433 46.2142 83.6433 46.9579 83.7935Z" fill="black"/>
<path d="M54.0138 66.8016C54.0141 68.1004 53.5656 69.3594 52.7443 70.3655C51.923 71.3716 50.7793 72.0631 49.5067 72.3228C48.7631 72.4731 47.9969 72.4731 47.2532 72.3228C45.9808 72.0628 44.8372 71.3713 44.0159 70.3652C43.1947 69.3592 42.7461 68.1003 42.7461 66.8016C42.7461 65.5029 43.1947 64.244 44.0159 63.238C44.8372 62.2319 45.9808 61.5404 47.2532 61.2804C47.9969 61.1302 48.7631 61.1302 49.5067 61.2804C50.7793 61.5402 51.923 62.2316 52.7443 63.2378C53.5656 64.2439 54.0141 65.5028 54.0138 66.8016Z" fill="#6C63FF"/>
<path opacity="0.2" d="M49.5067 61.2804V72.3228C48.763 72.4731 47.9968 72.4731 47.2532 72.3228V61.2804C47.9968 61.1302 48.763 61.1302 49.5067 61.2804Z" fill="black"/>
<path d="M54.0138 99.0846C54.0141 100.383 53.5656 101.642 52.7443 102.649C51.923 103.655 50.7793 104.346 49.5067 104.606C48.7631 104.756 47.9969 104.756 47.2532 104.606C45.9808 104.346 44.8372 103.654 44.0159 102.648C43.1947 101.642 42.7461 100.383 42.7461 99.0846C42.7461 97.7859 43.1947 96.527 44.0159 95.521C44.8372 94.5149 45.9808 93.8234 47.2532 93.5634C47.9969 93.4132 48.7631 93.4132 49.5067 93.5634C50.7793 93.8232 51.923 94.5146 52.7443 95.5207C53.5656 96.5269 54.0141 97.7858 54.0138 99.0846Z" fill="#6C63FF"/>
<path opacity="0.2" d="M49.5067 93.5634V104.606C48.763 104.756 47.9968 104.756 47.2532 104.606V93.5634C47.9968 93.4132 48.763 93.4132 49.5067 93.5634Z" fill="black"/>
<path d="M68.0314 114.801C68.0317 116.1 67.5832 117.359 66.7619 118.365C65.9406 119.371 64.7968 120.063 63.5243 120.323C62.7806 120.473 62.0144 120.473 61.2708 120.323C59.9984 120.063 58.8548 119.371 58.0335 118.365C57.2122 117.359 56.7637 116.1 56.7637 114.801C56.7637 113.503 57.2122 112.244 58.0335 111.238C58.8548 110.232 59.9984 109.54 61.2708 109.28C62.0144 109.13 62.7806 109.13 63.5243 109.28C64.7969 109.54 65.9406 110.231 66.7619 111.238C67.5832 112.244 68.0317 113.503 68.0314 114.801Z" fill="#6C63FF"/>
<path opacity="0.2" d="M63.5243 109.28V120.323C62.7806 120.473 62.0144 120.473 61.2708 120.323V109.28C62.0144 109.13 62.7806 109.13 63.5243 109.28Z" fill="black"/>
<path d="M80.4142 85.8844C81.3495 86.7855 81.9448 87.9821 82.0992 89.2717C82.2536 90.5613 81.9578 91.8646 81.2617 92.9611C80.8538 93.6008 80.322 94.1525 79.6978 94.5836C78.6275 95.3193 77.336 95.6628 76.0417 95.556C74.7474 95.4491 73.5297 94.8985 72.5947 93.9972C71.6596 93.0959 71.0645 91.8993 70.9101 90.6098C70.7557 89.3203 71.0514 88.0171 71.7472 86.9205C72.1551 86.2808 72.6869 85.7291 73.3111 85.2979C74.3813 84.562 75.6728 84.2183 76.9672 84.3252C78.2616 84.4321 79.4793 84.9829 80.4142 85.8844Z" fill="#6C63FF"/>
<path opacity="0.2" d="M73.3112 85.2979L81.2618 92.961C80.8539 93.6008 80.3221 94.1524 79.6979 94.5836L71.7473 86.9205C72.1552 86.2808 72.687 85.7291 73.3112 85.2979Z" fill="black"/>
<path d="M82.1135 98.2029C83.0488 99.1041 83.644 100.301 83.7984 101.59C83.9528 102.88 83.657 104.183 82.9609 105.28C82.553 105.919 82.0213 106.471 81.397 106.902C80.3268 107.638 79.0352 107.981 77.7409 107.874C76.4466 107.768 75.229 107.217 74.2939 106.316C73.3588 105.414 72.7637 104.218 72.6093 102.928C72.4549 101.639 72.7506 100.336 73.4464 99.239C73.8544 98.5993 74.3861 98.0476 75.0104 97.6164C76.0805 96.8805 77.372 96.5368 78.6664 96.6437C79.9608 96.7506 81.1785 97.3014 82.1135 98.2029Z" fill="#6C63FF"/>
<path opacity="0.2" d="M75.0105 97.6165L82.961 105.28C82.5531 105.919 82.0214 106.471 81.3971 106.902L73.4465 99.239C73.8545 98.5993 74.3862 98.0476 75.0105 97.6165Z" fill="black"/>
<path d="M31.5652 101.176C32.5005 102.077 33.0958 103.274 33.2502 104.564C33.4046 105.853 33.1088 107.157 32.4127 108.253C32.0048 108.893 31.473 109.444 30.8488 109.876C29.7785 110.611 28.487 110.955 27.1927 110.848C25.8984 110.741 24.6807 110.19 23.7457 109.289C22.8106 108.388 22.2155 107.191 22.0611 105.902C21.9067 104.612 22.2024 103.309 22.8982 102.212C23.3061 101.573 23.8379 101.021 24.4621 100.59C25.5323 99.8539 26.8238 99.5103 28.1182 99.6171C29.4126 99.724 30.6303 100.275 31.5652 101.176Z" fill="#6C63FF"/>
<path opacity="0.2" d="M24.4619 100.59L32.4124 108.253C32.0045 108.893 31.4728 109.444 30.8485 109.876L22.8979 102.212C23.3059 101.573 23.8376 101.021 24.4619 100.59Z" fill="black"/>
<path opacity="0.2" d="M13.3807 0H11.2568V15.7167H13.3807V0Z" fill="black"/>
<path opacity="0.2" d="M25.6992 0H23.5753V15.7167H25.6992V0Z" fill="black"/>
<path opacity="0.2" d="M38.0176 0H35.8937V15.7167H38.0176V0Z" fill="black"/>
<path opacity="0.2" d="M50.336 0H48.2122V15.7167H50.336V0Z" fill="black"/>
<path opacity="0.2" d="M62.6548 0H60.5309V15.7167H62.6548V0Z" fill="black"/>
<path opacity="0.2" d="M74.9732 0H72.8494V15.7167H74.9732V0Z" fill="black"/>
<path opacity="0.2" d="M87.2916 0H85.1677V15.7167H87.2916V0Z" fill="black"/>
</svg>
